  0
SECTION
  2
HEADER
  9
$ACADVER
  1
AC1027
  9
$ACADMAINTVER
 70
105
  9
$DWGCODEPAGE
  3
ANSI_1252
  9
$LASTSAVEDBY
  1
ezdxf
  9
$REQUIREDVERSIONS
160
0
  9
$INSBASE
 10
0.0
 20
0.0
 30
0.0
  9
$EXTMIN
 10
1e+20
 20
1e+20
 30
1e+20
  9
$EXTMAX
 10
-1e+20
 20
-1e+20
 30
-1e+20
  9
$LIMMIN
 10
0.0
 20
0.0
  9
$LIMMAX
 10
420.0
 20
297.0
  9
$ORTHOMODE
 70
0
  9
$REGENMODE
 70
1
  9
$FILLMODE
 70
1
  9
$QTEXTMODE
 70
0
  9
$MIRRTEXT
 70
1
  9
$LTSCALE
 40
1.0
  9
$ATTMODE
 70
1
  9
$TEXTSIZE
 40
2.5
  9
$TRACEWID
 40
1.0
  9
$TEXTSTYLE
  7
OpenSans
  9
$CLAYER
  8
0
  9
$CELTYPE
  6
ByLayer
  9
$CECOLOR
 62
256
  9
$CELTSCALE
 40
1.0
  9
$DISPSILH
 70
0
  9
$DIMSCALE
 40
1.0
  9
$DIMASZ
 40
0.175
  9
$DIMEXO
 40
0.125
  9
$DIMDLI
 40
3.75
  9
$DIMRND
 40
0.0
  9
$DIMDLE
 40
0.0
  9
$DIMEXE
 40
0.375
  9
$DIMTP
 40
0.0
  9
$DIMTM
 40
0.0
  9
$DIMTXT
 40
0.25
  9
$DIMCEN
 40
2.5
  9
$DIMTSZ
 40
0.0
  9
$DIMTOL
 70
0
  9
$DIMLIM
 70
0
  9
$DIMTIH
 70
0
  9
$DIMTOH
 70
0
  9
$DIMSE1
 70
0
  9
$DIMSE2
 70
0
  9
$DIMTAD
 70
1
  9
$DIMZIN
 70
12
  9
$DIMBLK
  1
ARCHTICK
  9
$DIMASO
 70
1
  9
$DIMSHO
 70
1
  9
$DIMPOST
  1

  9
$DIMAPOST
  1

  9
$DIMALT
 70
0
  9
$DIMALTD
 70
3
  9
$DIMALTF
 40
0.03937007874
  9
$DIMLFAC
 40
100.0
  9
$DIMTOFL
 70
1
  9
$DIMTVP
 40
0.0
  9
$DIMTIX
 70
0
  9
$DIMSOXD
 70
0
  9
$DIMSAH
 70
0
  9
$DIMBLK1
  1

  9
$DIMBLK2
  1

  9
$DIMSTYLE
  2
EZDXF
  9
$DIMCLRD
 70
0
  9
$DIMCLRE
 70
0
  9
$DIMCLRT
 70
0
  9
$DIMTFAC
 40
0.5
  9
$DIMGAP
 40
0.1
  9
$DIMJUST
 70
0
  9
$DIMSD1
 70
0
  9
$DIMSD2
 70
0
  9
$DIMTOLJ
 70
0
  9
$DIMTZIN
 70
8
  9
$DIMALTZ
 70
0
  9
$DIMALTTZ
 70
0
  9
$DIMUPT
 70
1
  9
$DIMDEC
 70
2
  9
$DIMTDEC
 70
2
  9
$DIMALTU
 70
2
  9
$DIMALTTD
 70
3
  9
$DIMTXSTY
  7
OpenSansCondensed-Light
  9
$DIMAUNIT
 70
0
  9
$DIMADEC
 70
2
  9
$DIMALTRND
 40
0.0
  9
$DIMAZIN
 70
3
  9
$DIMDSEP
 70
46
  9
$DIMATFIT
 70
3
  9
$DIMFRAC
 70
0
  9
$DIMLDRBLK
  1

  9
$DIMLUNIT
 70
2
  9
$DIMLWD
 70
-2
  9
$DIMLWE
 70
-2
  9
$DIMTMOVE
 70
2
  9
$DIMFXL
 40
1.0
  9
$DIMFXLON
 70
0
  9
$DIMJOGANG
 40
0.785398163397
  9
$DIMTFILL
 70
0
  9
$DIMTFILLCLR
 70
0
  9
$DIMARCSYM
 70
0
  9
$DIMLTYPE
  6

  9
$DIMLTEX1
  6

  9
$DIMLTEX2
  6

  9
$DIMTXTDIRECTION
 70
0
  9
$LUNITS
 70
2
  9
$LUPREC
 70
4
  9
$SKETCHINC
 40
1.0
  9
$FILLETRAD
 40
10.0
  9
$AUNITS
 70
0
  9
$AUPREC
 70
2
  9
$MENU
  1
.
  9
$ELEVATION
 40
0.0
  9
$PELEVATION
 40
0.0
  9
$THICKNESS
 40
0.0
  9
$LIMCHECK
 70
0
  9
$CHAMFERA
 40
0.0
  9
$CHAMFERB
 40
0.0
  9
$CHAMFERC
 40
0.0
  9
$CHAMFERD
 40
0.0
  9
$SKPOLY
 70
0
  9
$TDCREATE
 40
2460540.922824074
  9
$TDUCREATE
 40
2458532.153996898
  9
$TDUPDATE
 40
2460540.922824074
  9
$TDUUPDATE
 40
2458532.1544311
  9
$TDINDWG
 40
0.0
  9
$TDUSRTIMER
 40
0.0
  9
$USRTIMER
 70
1
  9
$ANGBASE
 50
0.0
  9
$ANGDIR
 70
0
  9
$PDMODE
 70
0
  9
$PDSIZE
 40
0.0
  9
$PLINEWID
 40
0.0
  9
$SPLFRAME
 70
0
  9
$SPLINETYPE
 70
6
  9
$SPLINESEGS
 70
8
  9
$HANDSEED
  5
20A
  9
$SURFTAB1
 70
6
  9
$SURFTAB2
 70
6
  9
$SURFTYPE
 70
6
  9
$SURFU
 70
6
  9
$SURFV
 70
6
  9
$UCSBASE
  2

  9
$UCSNAME
  2

  9
$UCSORG
 10
0.0
 20
0.0
 30
0.0
  9
$UCSXDIR
 10
1.0
 20
0.0
 30
0.0
  9
$UCSYDIR
 10
0.0
 20
1.0
 30
0.0
  9
$UCSORTHOREF
  2

  9
$UCSORTHOVIEW
 70
0
  9
$UCSORGTOP
 10
0.0
 20
0.0
 30
0.0
  9
$UCSORGBOTTOM
 10
0.0
 20
0.0
 30
0.0
  9
$UCSORGLEFT
 10
0.0
 20
0.0
 30
0.0
  9
$UCSORGRIGHT
 10
0.0
 20
0.0
 30
0.0
  9
$UCSORGFRONT
 10
0.0
 20
0.0
 30
0.0
  9
$UCSORGBACK
 10
0.0
 20
0.0
 30
0.0
  9
$PUCSBASE
  2

  9
$PUCSNAME
  2

  9
$PUCSORG
 10
0.0
 20
0.0
 30
0.0
  9
$PUCSXDIR
 10
1.0
 20
0.0
 30
0.0
  9
$PUCSYDIR
 10
0.0
 20
1.0
 30
0.0
  9
$PUCSORTHOREF
  2

  9
$PUCSORTHOVIEW
 70
0
  9
$PUCSORGTOP
 10
0.0
 20
0.0
 30
0.0
  9
$PUCSORGBOTTOM
 10
0.0
 20
0.0
 30
0.0
  9
$PUCSORGLEFT
 10
0.0
 20
0.0
 30
0.0
  9
$PUCSORGRIGHT
 10
0.0
 20
0.0
 30
0.0
  9
$PUCSORGFRONT
 10
0.0
 20
0.0
 30
0.0
  9
$PUCSORGBACK
 10
0.0
 20
0.0
 30
0.0
  9
$USERI1
 70
0
  9
$USERI2
 70
0
  9
$USERI3
 70
0
  9
$USERI4
 70
0
  9
$USERI5
 70
0
  9
$USERR1
 40
0.0
  9
$USERR2
 40
0.0
  9
$USERR3
 40
0.0
  9
$USERR4
 40
0.0
  9
$USERR5
 40
0.0
  9
$WORLDVIEW
 70
1
  9
$SHADEDGE
 70
3
  9
$SHADEDIF
 70
70
  9
$TILEMODE
 70
1
  9
$MAXACTVP
 70
64
  9
$PINSBASE
 10
0.0
 20
0.0
 30
0.0
  9
$PLIMCHECK
 70
0
  9
$PEXTMIN
 10
1e+20
 20
1e+20
 30
1e+20
  9
$PEXTMAX
 10
-1e+20
 20
-1e+20
 30
-1e+20
  9
$PLIMMIN
 10
0.0
 20
0.0
  9
$PLIMMAX
 10
420.0
 20
297.0
  9
$UNITMODE
 70
0
  9
$VISRETAIN
 70
1
  9
$PLINEGEN
 70
0
  9
$PSLTSCALE
 70
1
  9
$TREEDEPTH
 70
3020
  9
$CMLSTYLE
  2
Standard
  9
$CMLJUST
 70
0
  9
$CMLSCALE
 40
20.0
  9
$PROXYGRAPHICS
 70
1
  9
$MEASUREMENT
 70
1
  9
$CELWEIGHT
370
-1
  9
$ENDCAPS
280
0
  9
$JOINSTYLE
280
0
  9
$LWDISPLAY
290
0
  9
$INSUNITS
 70
4
  9
$HYPERLINKBASE
  1

  9
$STYLESHEET
  1

  9
$XEDIT
290
1
  9
$CEPSNTYPE
380
0
  9
$PSTYLEMODE
290
1
  9
$FINGERPRINTGUID
  2
{8B2A54E1-789B-4083-B93E-1CF873EC47F7}
  9
$VERSIONGUID
  2
{74362601-E6D4-457F-8272-C6243ADF1D92}
  9
$EXTNAMES
290
1
  9
$PSVPSCALE
 40
0.0
  9
$OLESTARTUP
290
0
  9
$SORTENTS
280
127
  9
$INDEXCTL
280
0
  9
$HIDETEXT
280
1
  9
$XCLIPFRAME
280
0
  9
$HALOGAP
280
0
  9
$OBSCOLOR
 70
257
  9
$OBSLTYPE
280
0
  9
$INTERSECTIONDISPLAY
280
0
  9
$INTERSECTIONCOLOR
 70
257
  9
$DIMASSOC
280
2
  9
$PROJECTNAME
  1

  9
$CAMERADISPLAY
290
0
  9
$LENSLENGTH
 40
50.0
  9
$CAMERAHEIGHT
 40
0.0
  9
$STEPSPERSEC
 40
24.0
  9
$STEPSIZE
 40
100.0
  9
$3DDWFPREC
 40
2.0
  9
$PSOLWIDTH
 40
0.005
  9
$PSOLHEIGHT
 40
0.08
  9
$LOFTANG1
 40
1.570796326795
  9
$LOFTANG2
 40
1.570796326795
  9
$LOFTMAG1
 40
0.0
  9
$LOFTMAG2
 40
0.0
  9
$LOFTPARAM
 70
7
  9
$LOFTNORMALS
280
1
  9
$LATITUDE
 40
37.795
  9
$LONGITUDE
 40
-122.394
  9
$NORTHDIRECTION
 40
0.0
  9
$TIMEZONE
 70
-8000
  9
$LIGHTGLYPHDISPLAY
280
1
  9
$TILEMODELIGHTSYNCH
280
1
  9
$CMATERIAL
347
20
  9
$SOLIDHIST
280
0
  9
$SHOWHIST
280
1
  9
$DWFFRAME
280
2
  9
$DGNFRAME
280
2
  9
$REALWORLDSCALE
290
1
  9
$INTERFERECOLOR
 62
256
  9
$CSHADOW
280
0
  9
$SHADOWPLANELOCATION
 40
0.0
  0
ENDSEC
  0
SECTION
  2
CLASSES
  0
CLASS
  1
ACDBDICTIONARYWDFLT
  2
AcDbDictionaryWithDefault
  3
ObjectDBX Classes
 90
0
 91
0
280
0
281
0
  0
CLASS
  1
SUN
  2
AcDbSun
  3
SCENEOE
 90
1153
 91
0
280
0
281
0
  0
CLASS
  1
VISUALSTYLE
  2
AcDbVisualStyle
  3
ObjectDBX Classes
 90
4095
 91
0
280
0
281
0
  0
CLASS
  1
MATERIAL
  2
AcDbMaterial
  3
ObjectDBX Classes
 90
1153
 91
0
280
0
281
0
  0
CLASS
  1
SCALE
  2
AcDbScale
  3
ObjectDBX Classes
 90
1153
 91
0
280
0
281
0
  0
CLASS
  1
TABLESTYLE
  2
AcDbTableStyle
  3
ObjectDBX Classes
 90
4095
 91
0
280
0
281
0
  0
CLASS
  1
MLEADERSTYLE
  2
AcDbMLeaderStyle
  3
ACDB_MLEADERSTYLE_CLASS
 90
4095
 91
0
280
0
281
0
  0
CLASS
  1
DICTIONARYVAR
  2
AcDbDictionaryVar
  3
ObjectDBX Classes
 90
0
 91
0
280
0
281
0
  0
CLASS
  1
CELLSTYLEMAP
  2
AcDbCellStyleMap
  3
ObjectDBX Classes
 90
1152
 91
0
280
0
281
0
  0
CLASS
  1
MENTALRAYRENDERSETTINGS
  2
AcDbMentalRayRenderSettings
  3
SCENEOE
 90
1024
 91
0
280
0
281
0
  0
CLASS
  1
ACDBDETAILVIEWSTYLE
  2
AcDbDetailViewStyle
  3
ObjectDBX Classes
 90
1025
 91
0
280
0
281
0
  0
CLASS
  1
ACDBSECTIONVIEWSTYLE
  2
AcDbSectionViewStyle
  3
ObjectDBX Classes
 90
1025
 91
0
280
0
281
0
  0
CLASS
  1
RASTERVARIABLES
  2
AcDbRasterVariables
  3
ISM
 90
0
 91
0
280
0
281
0
  0
CLASS
  1
LAYOUT
  2
AcDbLayout
  3
ObjectDBX Classes
 90
0
 91
0
280
0
281
0
  0
CLASS
  1
ACDBPLACEHOLDER
  2
AcDbPlaceHolder
  3
ObjectDBX Classes
 90
0
 91
0
280
0
281
0
  0
ENDSEC
  0
SECTION
  2
TABLES
  0
TABLE
  2
VPORT
  5
8
330
0
100
AcDbSymbolTable
 70
1
  0
VPORT
  5
23
330
8
100
AcDbSymbolTableRecord
100
AcDbViewportTableRecord
  2
*Active
 70
0
 10
0.0
 20
0.0
 11
1.0
 21
1.0
 12
0.0
 22
0.0
 13
0.0
 23
0.0
 14
0.5
 24
0.5
 15
0.5
 25
0.5
 16
0.0
 26
0.0
 36
1.0
 17
0.0
 27
0.0
 37
0.0
 40
1000.0
 41
1.34
 42
50.0
 43
0.0
 44
0.0
 50
0.0
 51
0.0
 71
0
 72
1000
 73
1
 74
3
 75
0
 76
0
 77
0
 78
0
281
0
 65
0
146
0.0
  0
ENDTAB
  0
TABLE
  2
LTYPE
  5
2
330
0
100
AcDbSymbolTable
 70
21
  0
LTYPE
  5
24
330
2
100
AcDbSymbolTableRecord
100
AcDbLinetypeTableRecord
  2
ByBlock
 70
0
  3

 72
65
 73
0
 40
0.0
  0
LTYPE
  5
25
330
2
100
AcDbSymbolTableRecord
100
AcDbLinetypeTableRecord
  2
ByLayer
 70
0
  3

 72
65
 73
0
 40
0.0
  0
LTYPE
  5
26
330
2
100
AcDbSymbolTableRecord
100
AcDbLinetypeTableRecord
  2
Continuous
 70
0
  3

 72
65
 73
0
 40
0.0
  0
LTYPE
  5
2F
330
2
100
AcDbSymbolTableRecord
100
AcDbLinetypeTableRecord
  2
CENTER
 70
0
  3
Center ____ _ ____ _ ____ _ ____ _ ____ _ ____
 72
65
 73
4
 40
5.08
 49
3.175
 74
0
 49
-0.635
 74
0
 49
0.635
 74
0
 49
-0.635
 74
0
  0
LTYPE
  5
30
330
2
100
AcDbSymbolTableRecord
100
AcDbLinetypeTableRecord
  2
CENTERX2
 70
0
  3
Center (2x) ________  __  ________  __  ________
 72
65
 73
4
 40
8.89
 49
6.35
 74
0
 49
-0.635
 74
0
 49
1.27
 74
0
 49
-0.635
 74
0
  0
LTYPE
  5
31
330
2
100
AcDbSymbolTableRecord
100
AcDbLinetypeTableRecord
  2
CENTER2
 70
0
  3
Center (.5x) ____ _ ____ _ ____ _ ____ _ ____
 72
65
 73
4
 40
2.54
 49
1.587
 74
0
 49
-0.318
 74
0
 49
0.318
 74
0
 49
-0.318
 74
0
  0
LTYPE
  5
32
330
2
100
AcDbSymbolTableRecord
100
AcDbLinetypeTableRecord
  2
DASHED
 70
0
  3
Dashed __ __ __ __ __ __ __ __ __ __ __ __ __ _
 72
65
 73
2
 40
1.524
 49
1.27
 74
0
 49
-0.254
 74
0
  0
LTYPE
  5
33
330
2
100
AcDbSymbolTableRecord
100
AcDbLinetypeTableRecord
  2
DASHEDX2
 70
0
  3
Dashed (2x) ____  ____  ____  ____  ____  ____
 72
65
 73
2
 40
3.048
 49
2.54
 74
0
 49
-0.508
 74
0
  0
LTYPE
  5
34
330
2
100
AcDbSymbolTableRecord
100
AcDbLinetypeTableRecord
  2
DASHED2
 70
0
  3
Dashed (.5x) _ _ _ _ _ _ _ _ _ _ _ _ _ _
 72
65
 73
2
 40
0.762
 49
0.635
 74
0
 49
-0.127
 74
0
  0
LTYPE
  5
35
330
2
100
AcDbSymbolTableRecord
100
AcDbLinetypeTableRecord
  2
PHANTOM
 70
0
  3
Phantom ______  __  __  ______  __  __  ______
 72
65
 73
6
 40
6.35
 49
3.175
 74
0
 49
-0.635
 74
0
 49
0.635
 74
0
 49
-0.635
 74
0
 49
0.635
 74
0
 49
-0.635
 74
0
  0
LTYPE
  5
36
330
2
100
AcDbSymbolTableRecord
100
AcDbLinetypeTableRecord
  2
PHANTOMX2
 70
0
  3
Phantom (2x)____________    ____    ____    ____________
 72
65
 73
6
 40
10.795
 49
6.35
 74
0
 49
-0.635
 74
0
 49
1.27
 74
0
 49
-0.635
 74
0
 49
1.27
 74
0
 49
-0.635
 74
0
  0
LTYPE
  5
37
330
2
100
AcDbSymbolTableRecord
100
AcDbLinetypeTableRecord
  2
PHANTOM2
 70
0
  3
Phantom (.5x) ___ _ _ ___ _ _ ___ _ _ ___ _ _ ___
 72
65
 73
6
 40
3.175
 49
1.587
 74
0
 49
-0.318
 74
0
 49
0.318
 74
0
 49
-0.318
 74
0
 49
0.318
 74
0
 49
-0.318
 74
0
  0
LTYPE
  5
38
330
2
100
AcDbSymbolTableRecord
100
AcDbLinetypeTableRecord
  2
DASHDOT
 70
0
  3
Dash dot __ . __ . __ . __ . __ . __ . __ . __
 72
65
 73
4
 40
3.556
 49
2.54
 74
0
 49
-0.508
 74
0
 49
0.0
 74
0
 49
-0.508
 74
0
  0
LTYPE
  5
39
330
2
100
AcDbSymbolTableRecord
100
AcDbLinetypeTableRecord
  2
DASHDOTX2
 70
0
  3
Dash dot (2x) ____  .  ____  .  ____  .  ____
 72
65
 73
4
 40
6.096
 49
5.08
 74
0
 49
-0.508
 74
0
 49
0.0
 74
0
 49
-0.508
 74
0
  0
LTYPE
  5
3A
330
2
100
AcDbSymbolTableRecord
100
AcDbLinetypeTableRecord
  2
DASHDOT2
 70
0
  3
Dash dot (.5x) _ . _ . _ . _ . _ . _ . _ . _
 72
65
 73
4
 40
1.778
 49
1.27
 74
0
 49
-0.254
 74
0
 49
0.0
 74
0
 49
-0.254
 74
0
  0
LTYPE
  5
3B
330
2
100
AcDbSymbolTableRecord
100
AcDbLinetypeTableRecord
  2
DOT
 70
0
  3
Dot .  .  .  .  .  .  .  .  .  .  .  .  .  .  .  .
 72
65
 73
2
 40
0.508
 49
0.0
 74
0
 49
-0.508
 74
0
  0
LTYPE
  5
3C
330
2
100
AcDbSymbolTableRecord
100
AcDbLinetypeTableRecord
  2
DOTX2
 70
0
  3
Dot (2x) .    .    .    .    .    .    .    . 
 72
65
 73
2
 40
1.016
 49
0.0
 74
0
 49
-1.016
 74
0
  0
LTYPE
  5
3D
330
2
100
AcDbSymbolTableRecord
100
AcDbLinetypeTableRecord
  2
DOT2
 70
0
  3
Dot (.5) . . . . . . . . . . . . . . . . . . . 
 72
65
 73
2
 40
0.254
 49
0.0
 74
0
 49
-0.254
 74
0
  0
LTYPE
  5
3E
330
2
100
AcDbSymbolTableRecord
100
AcDbLinetypeTableRecord
  2
DIVIDE
 70
0
  3
Divide __ . . __ . . __ . . __ . . __ . . __
 72
65
 73
6
 40
4.064
 49
2.54
 74
0
 49
-0.508
 74
0
 49
0.0
 74
0
 49
-0.508
 74
0
 49
0.0
 74
0
 49
-0.508
 74
0
  0
LTYPE
  5
3F
330
2
100
AcDbSymbolTableRecord
100
AcDbLinetypeTableRecord
  2
DIVIDEX2
 70
0
  3
Divide (2x) ____  . .  ____  . .  ____  . .  ____
 72
65
 73
6
 40
6.604
 49
5.08
 74
0
 49
-0.508
 74
0
 49
0.0
 74
0
 49
-0.508
 74
0
 49
0.0
 74
0
 49
-0.508
 74
0
  0
LTYPE
  5
40
330
2
100
AcDbSymbolTableRecord
100
AcDbLinetypeTableRecord
  2
DIVIDE2
 70
0
  3
Divide(.5x) _ . _ . _ . _ . _ . _ . _ . _
 72
65
 73
6
 40
2.032
 49
1.27
 74
0
 49
-0.254
 74
0
 49
0.0
 74
0
 49
-0.254
 74
0
 49
0.0
 74
0
 49
-0.254
 74
0
  0
ENDTAB
  0
TABLE
  2
LAYER
  5
1
330
0
100
AcDbSymbolTable
 70
2
  0
LAYER
  5
27
330
1
100
AcDbSymbolTableRecord
100
AcDbLayerTableRecord
  2
0
 70
0
 62
7
  6
Continuous
370
-3
390
13
347
21
  0
LAYER
  5
28
330
1
100
AcDbSymbolTableRecord
100
AcDbLayerTableRecord
  2
Defpoints
 70
0
 62
7
  6
Continuous
290
0
370
-3
390
13
347
21
  0
ENDTAB
  0
TABLE
  2
STYLE
  5
5
330
0
100
AcDbSymbolTable
 70
26
  0
STYLE
  5
29
330
5
100
AcDbSymbolTableRecord
100
AcDbTextStyleTableRecord
  2
Standard
 70
0
 40
0.0
 41
1.0
 50
0.0
 71
0
 42
2.5
  3
txt
  4

  0
STYLE
  5
41
330
5
100
AcDbSymbolTableRecord
100
AcDbTextStyleTableRecord
  2
OpenSans-Light
 70
0
 40
0.0
 41
1.0
 50
0.0
 71
0
 42
2.5
  3
OpenSans-Light.ttf
  4

  0
STYLE
  5
42
330
5
100
AcDbSymbolTableRecord
100
AcDbTextStyleTableRecord
  2
OpenSans-Light-Italic
 70
0
 40
0.0
 41
1.0
 50
0.0
 71
0
 42
2.5
  3
OpenSans-LightItalic.ttf
  4

  0
STYLE
  5
43
330
5
100
AcDbSymbolTableRecord
100
AcDbTextStyleTableRecord
  2
OpenSans
 70
0
 40
0.0
 41
1.0
 50
0.0
 71
0
 42
2.5
  3
OpenSans-Regular.ttf
  4

  0
STYLE
  5
44
330
5
100
AcDbSymbolTableRecord
100
AcDbTextStyleTableRecord
  2
OpenSans-Italic
 70
0
 40
0.0
 41
1.0
 50
0.0
 71
0
 42
2.5
  3
OpenSans-Italic.ttf
  4

  0
STYLE
  5
45
330
5
100
AcDbSymbolTableRecord
100
AcDbTextStyleTableRecord
  2
OpenSans-SemiBold
 70
0
 40
0.0
 41
1.0
 50
0.0
 71
0
 42
2.5
  3
OpenSans-SemiBold.ttf
  4

  0
STYLE
  5
46
330
5
100
AcDbSymbolTableRecord
100
AcDbTextStyleTableRecord
  2
OpenSans-SemiBoldItalic
 70
0
 40
0.0
 41
1.0
 50
0.0
 71
0
 42
2.5
  3
OpenSans-SemiBoldItalic.ttf
  4

  0
STYLE
  5
47
330
5
100
AcDbSymbolTableRecord
100
AcDbTextStyleTableRecord
  2
OpenSans-Bold
 70
0
 40
0.0
 41
1.0
 50
0.0
 71
0
 42
2.5
  3
OpenSans-Bold.ttf
  4

  0
STYLE
  5
48
330
5
100
AcDbSymbolTableRecord
100
AcDbTextStyleTableRecord
  2
OpenSans-BoldItalic
 70
0
 40
0.0
 41
1.0
 50
0.0
 71
0
 42
2.5
  3
OpenSans-BoldItalic.ttf
  4

  0
STYLE
  5
49
330
5
100
AcDbSymbolTableRecord
100
AcDbTextStyleTableRecord
  2
OpenSans-ExtraBold
 70
0
 40
0.0
 41
1.0
 50
0.0
 71
0
 42
2.5
  3
OpenSans-ExtraBold.ttf
  4

  0
STYLE
  5
4A
330
5
100
AcDbSymbolTableRecord
100
AcDbTextStyleTableRecord
  2
OpenSans-ExtraBoldItalic
 70
0
 40
0.0
 41
1.0
 50
0.0
 71
0
 42
2.5
  3
OpenSans-ExtraBoldItalic.ttf
  4

  0
STYLE
  5
4B
330
5
100
AcDbSymbolTableRecord
100
AcDbTextStyleTableRecord
  2
OpenSansCondensed-Bold
 70
0
 40
0.0
 41
1.0
 50
0.0
 71
0
 42
2.5
  3
OpenSansCondensed-Bold.ttf
  4

  0
STYLE
  5
4C
330
5
100
AcDbSymbolTableRecord
100
AcDbTextStyleTableRecord
  2
OpenSansCondensed-Light
 70
0
 40
0.0
 41
1.0
 50
0.0
 71
0
 42
2.5
  3
OpenSansCondensed-Light.ttf
  4

  0
STYLE
  5
4D
330
5
100
AcDbSymbolTableRecord
100
AcDbTextStyleTableRecord
  2
OpenSansCondensed-Italic
 70
0
 40
0.0
 41
1.0
 50
0.0
 71
0
 42
2.5
  3
OpenSansCondensed-LightItalic.ttf
  4

  0
STYLE
  5
4E
330
5
100
AcDbSymbolTableRecord
100
AcDbTextStyleTableRecord
  2
LiberationSans
 70
0
 40
0.0
 41
1.0
 50
0.0
 71
0
 42
2.5
  3
LiberationSans-Regular.ttf
  4

  0
STYLE
  5
4F
330
5
100
AcDbSymbolTableRecord
100
AcDbTextStyleTableRecord
  2
LiberationSans-Bold
 70
0
 40
0.0
 41
1.0
 50
0.0
 71
0
 42
2.5
  3
LiberationSans-Bold.ttf
  4

  0
STYLE
  5
50
330
5
100
AcDbSymbolTableRecord
100
AcDbTextStyleTableRecord
  2
LiberationSans-BoldItalic
 70
0
 40
0.0
 41
1.0
 50
0.0
 71
0
 42
2.5
  3
LiberationSans-BoldItalic.ttf
  4

  0
STYLE
  5
51
330
5
100
AcDbSymbolTableRecord
100
AcDbTextStyleTableRecord
  2
LiberationSans-Italic
 70
0
 40
0.0
 41
1.0
 50
0.0
 71
0
 42
2.5
  3
LiberationSans-Italic.ttf
  4

  0
STYLE
  5
52
330
5
100
AcDbSymbolTableRecord
100
AcDbTextStyleTableRecord
  2
LiberationSerif
 70
0
 40
0.0
 41
1.0
 50
0.0
 71
0
 42
2.5
  3
LiberationSerif-Regular.ttf
  4

  0
STYLE
  5
53
330
5
100
AcDbSymbolTableRecord
100
AcDbTextStyleTableRecord
  2
LiberationSerif-Bold
 70
0
 40
0.0
 41
1.0
 50
0.0
 71
0
 42
2.5
  3
LiberationSerif-Bold.ttf
  4

  0
STYLE
  5
54
330
5
100
AcDbSymbolTableRecord
100
AcDbTextStyleTableRecord
  2
LiberationSerif-BoldItalic
 70
0
 40
0.0
 41
1.0
 50
0.0
 71
0
 42
2.5
  3
LiberationSerif-BoldItalic.ttf
  4

  0
STYLE
  5
55
330
5
100
AcDbSymbolTableRecord
100
AcDbTextStyleTableRecord
  2
LiberationSerif-Italic
 70
0
 40
0.0
 41
1.0
 50
0.0
 71
0
 42
2.5
  3
LiberationSerif-Italic.ttf
  4

  0
STYLE
  5
56
330
5
100
AcDbSymbolTableRecord
100
AcDbTextStyleTableRecord
  2
LiberationMono
 70
0
 40
0.0
 41
1.0
 50
0.0
 71
0
 42
2.5
  3
LiberationMono-Regular.ttf
  4

  0
STYLE
  5
57
330
5
100
AcDbSymbolTableRecord
100
AcDbTextStyleTableRecord
  2
LiberationMono-Bold
 70
0
 40
0.0
 41
1.0
 50
0.0
 71
0
 42
2.5
  3
LiberationMono-Bold.ttf
  4

  0
STYLE
  5
58
330
5
100
AcDbSymbolTableRecord
100
AcDbTextStyleTableRecord
  2
LiberationMono-BoldItalic
 70
0
 40
0.0
 41
1.0
 50
0.0
 71
0
 42
2.5
  3
LiberationMono-BoldItalic.ttf
  4

  0
STYLE
  5
59
330
5
100
AcDbSymbolTableRecord
100
AcDbTextStyleTableRecord
  2
LiberationMono-Italic
 70
0
 40
0.0
 41
1.0
 50
0.0
 71
0
 42
2.5
  3
LiberationMono-Italic.ttf
  4

  0
ENDTAB
  0
TABLE
  2
VIEW
  5
7
330
0
100
AcDbSymbolTable
 70
0
  0
ENDTAB
  0
TABLE
  2
UCS
  5
6
330
0
100
AcDbSymbolTable
 70
0
  0
ENDTAB
  0
TABLE
  2
APPID
  5
3
330
0
100
AcDbSymbolTable
 70
3
  0
APPID
  5
2A
330
3
100
AcDbSymbolTableRecord
100
AcDbRegAppTableRecord
  2
ACAD
 70
0
  0
APPID
  5
207
330
3
100
AcDbSymbolTableRecord
100
AcDbRegAppTableRecord
  2
HATCHBACKGROUNDCOLOR
 70
0
  0
APPID
  5
208
330
3
100
AcDbSymbolTableRecord
100
AcDbRegAppTableRecord
  2
EZDXF
 70
0
  0
ENDTAB
  0
TABLE
  2
DIMSTYLE
  5
4
330
0
100
AcDbSymbolTable
 70
13
100
AcDbDimStyleTable
  0
DIMSTYLE
105
2B
330
4
100
AcDbSymbolTableRecord
100
AcDbDimStyleTableRecord
  2
Standard
 70
0
 40
1.0
 41
2.5
 42
0.625
 43
3.75
 44
1.25
 45
0.0
 46
0.0
 47
0.0
 48
0.0
 49
2.5
140
2.5
141
2.5
142
0.0
143
0.03937007874
144
1.0
145
0.0
146
1.0
147
0.625
148
0.0
 69
0
 70
0
 71
0
 72
0
 73
0
 74
0
 75
0
 76
0
 77
1
 78
8
 79
3
170
0
171
3
172
1
173
0
174
0
175
0
176
0
177
0
178
0
179
2
271
2
272
2
273
2
274
3
275
0
276
0
277
2
278
44
279
0
280
0
281
0
282
0
283
0
284
8
285
0
286
0
288
0
289
3
290
0
371
-2
372
-2
  0
DIMSTYLE
105
73
330
4
100
AcDbSymbolTableRecord
100
AcDbDimStyleTableRecord
  2
EZDXF
 70
0
 40
1.0
 41
0.175
 42
0.125
 43
3.75
 44
0.375
 45
0.0
 46
0.0
 47
0.0
 48
0.0
 49
2.5
140
1.0
141
2.5
142
0.0
143
0.03937007874
144
100.0
145
0.0
146
0.5
147
0.1
148
0.0
 69
0
 70
0
 71
0
 72
0
 73
0
 74
0
 75
0
 76
0
 77
1
 78
12
 79
3
170
0
171
3
172
1
173
0
174
0
175
0
176
0
177
0
178
0
179
2
271
2
272
2
273
2
274
3
275
0
276
0
277
2
278
46
279
2
280
0
281
0
282
0
283
0
284
8
285
0
286
0
288
1
289
3
290
0
340
4C
342
74
371
-2
372
-2
  0
DIMSTYLE
105
7C
330
4
100
AcDbSymbolTableRecord
100
AcDbDimStyleTableRecord
  2
EZ_M_100_H25_CM
 70
0
 40
1.0
 41
0.25
 42
0.125
 43
3.75
 44
0.375
 45
0.0
 46
0.0
 47
0.0
 48
0.0
 49
2.5
140
0.25
141
2.5
142
0.125
143
0.03937007874
144
100.0
145
0.0
146
0.5
147
0.1
148
0.0
 69
0
 70
0
 71
0
 72
0
 73
0
 74
0
 75
0
 76
0
 77
1
 78
12
 79
3
170
0
171
3
172
1
173
0
174
0
175
0
176
0
177
0
178
0
179
2
271
2
272
2
273
2
274
3
275
0
276
0
277
2
278
46
279
2
280
0
281
0
282
0
283
0
284
8
285
0
286
0
288
1
289
3
290
0
340
4C
371
-2
372
-2
  0
DIMSTYLE
105
7D
330
4
100
AcDbSymbolTableRecord
100
AcDbDimStyleTableRecord
  2
EZ_M_50_H25_CM
 70
0
 40
1.0
 41
0.125
 42
0.0625
 43
3.75
 44
0.1875
 45
0.0
 46
0.0
 47
0.0
 48
0.0
 49
2.5
140
0.125
141
2.5
142
0.0625
143
0.03937007874
144
100.0
145
0.0
146
0.5
147
0.05
148
0.0
 69
0
 70
0
 71
0
 72
0
 73
0
 74
0
 75
0
 76
0
 77
1
 78
12
 79
3
170
0
171
3
172
1
173
0
174
0
175
0
176
0
177
0
178
0
179
2
271
2
272
2
273
2
274
3
275
0
276
0
277
2
278
46
279
2
280
0
281
0
282
0
283
0
284
8
285
0
286
0
288
1
289
3
290
0
340
4C
371
-2
372
-2
  0
DIMSTYLE
105
7E
330
4
100
AcDbSymbolTableRecord
100
AcDbDimStyleTableRecord
  2
EZ_M_25_H25_CM
 70
0
 40
1.0
 41
0.0625
 42
0.03125
 43
3.75
 44
0.09375
 45
0.0
 46
0.0
 47
0.0
 48
0.0
 49
2.5
140
0.0625
141
2.5
142
0.03125
143
0.03937007874
144
100.0
145
0.0
146
0.5
147
0.025
148
0.0
 69
0
 70
0
 71
0
 72
0
 73
0
 74
0
 75
0
 76
0
 77
1
 78
12
 79
3
170
0
171
3
172
1
173
0
174
0
175
0
176
0
177
0
178
0
179
2
271
2
272
2
273
2
274
3
275
0
276
0
277
2
278
46
279
2
280
0
281
0
282
0
283
0
284
8
285
0
286
0
288
1
289
3
290
0
340
4C
371
-2
372
-2
  0
DIMSTYLE
105
7F
330
4
100
AcDbSymbolTableRecord
100
AcDbDimStyleTableRecord
  2
EZ_M_20_H25_CM
 70
0
 40
1.0
 41
0.05
 42
0.025
 43
3.75
 44
0.07500000000000001
 45
0.0
 46
0.0
 47
0.0
 48
0.0
 49
2.5
140
0.05
141
2.5
142
0.025
143
0.03937007874
144
100.0
145
0.0
146
0.5
147
0.020000000000000004
148
0.0
 69
0
 70
0
 71
0
 72
0
 73
0
 74
0
 75
0
 76
0
 77
1
 78
12
 79
3
170
0
171
3
172
1
173
0
174
0
175
0
176
0
177
0
178
0
179
2
271
2
272
2
273
2
274
3
275
0
276
0
277
2
278
46
279
2
280
0
281
0
282
0
283
0
284
8
285
0
286
0
288
1
289
3
290
0
340
4C
371
-2
372
-2
  0
DIMSTYLE
105
80
330
4
100
AcDbSymbolTableRecord
100
AcDbDimStyleTableRecord
  2
EZ_M_10_H25_CM
 70
0
 40
1.0
 41
0.025
 42
0.0125
 43
3.75
 44
0.037500000000000006
 45
0.0
 46
0.0
 47
0.0
 48
0.0
 49
2.5
140
0.025
141
2.5
142
0.0125
143
0.03937007874
144
100.0
145
0.0
146
0.5
147
0.010000000000000002
148
0.0
 69
0
 70
0
 71
0
 72
0
 73
0
 74
0
 75
0
 76
0
 77
1
 78
12
 79
3
170
0
171
3
172
1
173
0
174
0
175
0
176
0
177
0
178
0
179
2
271
2
272
2
273
2
274
3
275
0
276
0
277
2
278
46
279
2
280
0
281
0
282
0
283
0
284
8
285
0
286
0
288
1
289
3
290
0
340
4C
371
-2
372
-2
  0
DIMSTYLE
105
81
330
4
100
AcDbSymbolTableRecord
100
AcDbDimStyleTableRecord
  2
EZ_M_5_H25_CM
 70
0
 40
1.0
 41
0.0125
 42
0.00625
 43
3.75
 44
0.018750000000000003
 45
0.0
 46
0.0
 47
0.0
 48
0.0
 49
2.5
140
0.0125
141
2.5
142
0.00625
143
0.03937007874
144
100.0
145
0.0
146
0.5
147
0.005000000000000001
148
0.0
 69
0
 70
0
 71
0
 72
0
 73
0
 74
0
 75
0
 76
0
 77
1
 78
12
 79
3
170
0
171
3
172
1
173
0
174
0
175
0
176
0
177
0
178
0
179
2
271
2
272
2
273
2
274
3
275
0
276
0
277
2
278
46
279
2
280
0
281
0
282
0
283
0
284
8
285
0
286
0
288
1
289
3
290
0
340
4C
371
-2
372
-2
  0
DIMSTYLE
105
82
330
4
100
AcDbSymbolTableRecord
100
AcDbDimStyleTableRecord
  2
EZ_M_1_H25_CM
 70
0
 40
1.0
 41
0.0025
 42
0.00125
 43
3.75
 44
0.00375
 45
0.0
 46
0.0
 47
0.0
 48
0.0
 49
2.5
140
0.0025
141
2.5
142
0.00125
143
0.03937007874
144
100.0
145
0.0
146
0.5
147
0.001
148
0.0
 69
0
 70
0
 71
0
 72
0
 73
0
 74
0
 75
0
 76
0
 77
1
 78
12
 79
3
170
0
171
3
172
1
173
0
174
0
175
0
176
0
177
0
178
0
179
2
271
2
272
2
273
2
274
3
275
0
276
0
277
2
278
46
279
2
280
0
281
0
282
0
283
0
284
8
285
0
286
0
288
1
289
3
290
0
340
4C
371
-2
372
-2
  0
DIMSTYLE
105
83
330
4
100
AcDbSymbolTableRecord
100
AcDbDimStyleTableRecord
  2
EZ_RADIUS
 70
0
 40
1.0
 41
0.25
 42
0.125
 43
3.75
 44
0.375
 45
0.0
 46
0.0
 47
0.0
 48
0.0
 49
2.5
140
0.25
141
0.0
142
0.0
143
0.03937007874
144
100.0
145
0.0
146
0.5
147
0.1
148
0.0
 69
0
 70
0
 71
0
 72
0
 73
0
 74
0
 75
0
 76
0
 77
1
 78
12
 79
3
170
0
171
3
172
0
173
0
174
0
175
0
176
0
177
0
178
0
179
2
271
2
272
2
273
2
274
3
275
0
276
0
277
2
278
46
279
1
280
0
281
0
282
0
283
0
284
8
285
0
286
0
288
1
289
3
290
0
340
4C
342
84
371
-2
372
-2
  0
DIMSTYLE
105
88
330
4
100
AcDbSymbolTableRecord
100
AcDbDimStyleTableRecord
  2
EZ_RADIUS_INSIDE
 70
0
 40
1.0
 41
0.25
 42
0.125
 43
3.75
 44
0.375
 45
0.0
 46
0.0
 47
0.0
 48
0.0
 49
2.5
140
0.25
141
0.0
142
0.0
143
0.03937007874
144
100.0
145
0.0
146
0.5
147
0.1
148
0.0
 69
0
 70
0
 71
0
 72
0
 73
0
 74
0
 75
0
 76
0
 77
0
 78
12
 79
3
170
0
171
3
172
0
173
0
174
1
175
0
176
0
177
0
178
0
179
2
271
2
272
2
273
2
274
3
275
0
276
0
277
2
278
46
279
0
280
0
281
0
282
0
283
0
284
8
285
0
286
0
288
1
289
0
290
0
340
4C
342
84
371
-2
372
-2
  0
DIMSTYLE
105
89
330
4
100
AcDbSymbolTableRecord
100
AcDbDimStyleTableRecord
  2
EZ_CURVED
 70
0
 40
1.0
 41
0.25
 42
0.125
 43
3.75
 44
0.375
 45
0.0
 46
0.0
 47
0.0
 48
0.0
 49
2.5
140
0.25
141
2.5
142
0.0
143
0.03937007874
144
100.0
145
0.0
146
0.5
147
0.1
148
0.0
 69
0
 70
0
 71
0
 72
0
 73
0
 74
0
 75
0
 76
0
 77
1
 78
12
 79
2
 90
2
170
0
171
3
172
1
173
0
174
0
175
0
176
0
177
0
178
0
179
2
271
2
272
2
273
2
274
3
275
0
276
0
277
2
278
46
279
2
280
0
281
0
282
0
283
0
284
8
285
0
286
0
288
1
289
3
290
0
340
4C
371
-2
372
-2
  0
DIMSTYLE
105
8A
330
4
100
AcDbSymbolTableRecord
100
AcDbDimStyleTableRecord
  2
MyCustomStyle
 70
0
 40
1.0
 41
0.5
 42
0.625
 43
3.75
 44
1.25
 45
0.0
 46
0.0
 47
0.0
 48
0.0
 49
2.5
140
0.1
141
2.5
142
0.0
143
0.03937007874
144
1.0
145
0.0
146
1.0
147
0.625
148
0.0
 69
0
 70
0
 71
0
 72
0
 73
0
 74
0
 75
0
 76
0
 77
1
 78
8
 79
3
170
0
171
3
172
1
173
0
174
0
175
0
176
0
177
0
178
0
179
2
271
2
272
2
273
2
274
3
275
0
276
0
277
2
278
44
279
0
280
0
281
0
282
0
283
0
284
8
285
0
286
0
288
0
289
3
290
0
371
-2
372
-2
  0
ENDTAB
  0
TABLE
  2
BLOCK_RECORD
  5
9
330
0
100
AcDbSymbolTable
 70
31
  0
BLOCK_RECORD
  5
17
330
9
100
AcDbSymbolTableRecord
100
AcDbBlockTableRecord
  2
*Model_Space
340
1A
 70
0
280
1
281
0
  0
BLOCK_RECORD
  5
1B
330
9
100
AcDbSymbolTableRecord
100
AcDbBlockTableRecord
  2
*Paper_Space
340
1E
 70
0
280
1
281
0
  0
BLOCK_RECORD
  5
74
330
9
100
AcDbSymbolTableRecord
100
AcDbBlockTableRecord
  2
_ARCHTICK
340
0
 70
0
280
1
281
0
  0
BLOCK_RECORD
  5
78
330
9
100
AcDbSymbolTableRecord
100
AcDbBlockTableRecord
  2
_CLOSEDFILLED
340
0
 70
0
280
1
281
0
  0
BLOCK_RECORD
  5
84
330
9
100
AcDbSymbolTableRecord
100
AcDbBlockTableRecord
  2
_CLOSEDBLANK
340
0
 70
0
280
1
281
0
  0
BLOCK_RECORD
  5
AC
330
9
100
AcDbSymbolTableRecord
100
AcDbBlockTableRecord
  2
*D1
340
0
 70
0
280
1
281
0
  0
BLOCK_RECORD
  5
B8
330
9
100
AcDbSymbolTableRecord
100
AcDbBlockTableRecord
  2
*D2
340
0
 70
0
280
1
281
0
  0
BLOCK_RECORD
  5
C4
330
9
100
AcDbSymbolTableRecord
100
AcDbBlockTableRecord
  2
*D3
340
0
 70
0
280
1
281
0
  0
BLOCK_RECORD
  5
D0
330
9
100
AcDbSymbolTableRecord
100
AcDbBlockTableRecord
  2
*D4
340
0
 70
0
280
1
281
0
  0
BLOCK_RECORD
  5
DC
330
9
100
AcDbSymbolTableRecord
100
AcDbBlockTableRecord
  2
*D5
340
0
 70
0
280
1
281
0
  0
BLOCK_RECORD
  5
E8
330
9
100
AcDbSymbolTableRecord
100
AcDbBlockTableRecord
  2
*D6
340
0
 70
0
280
1
281
0
  0
BLOCK_RECORD
  5
F4
330
9
100
AcDbSymbolTableRecord
100
AcDbBlockTableRecord
  2
*D7
340
0
 70
0
280
1
281
0
  0
BLOCK_RECORD
  5
100
330
9
100
AcDbSymbolTableRecord
100
AcDbBlockTableRecord
  2
*D8
340
0
 70
0
280
1
281
0
  0
BLOCK_RECORD
  5
10F
330
9
100
AcDbSymbolTableRecord
100
AcDbBlockTableRecord
  2
*D9
340
0
 70
0
280
1
281
0
  0
BLOCK_RECORD
  5
12A
330
9
100
AcDbSymbolTableRecord
100
AcDbBlockTableRecord
  2
*D10
340
0
 70
0
280
1
281
0
  0
BLOCK_RECORD
  5
13A
330
9
100
AcDbSymbolTableRecord
100
AcDbBlockTableRecord
  2
*D11
340
0
 70
0
280
1
281
0
  0
BLOCK_RECORD
  5
146
330
9
100
AcDbSymbolTableRecord
100
AcDbBlockTableRecord
  2
*D12
340
0
 70
0
280
1
281
0
  0
BLOCK_RECORD
  5
152
330
9
100
AcDbSymbolTableRecord
100
AcDbBlockTableRecord
  2
*D13
340
0
 70
0
280
1
281
0
  0
BLOCK_RECORD
  5
15E
330
9
100
AcDbSymbolTableRecord
100
AcDbBlockTableRecord
  2
*D14
340
0
 70
0
280
1
281
0
  0
BLOCK_RECORD
  5
16A
330
9
100
AcDbSymbolTableRecord
100
AcDbBlockTableRecord
  2
*D15
340
0
 70
0
280
1
281
0
  0
BLOCK_RECORD
  5
176
330
9
100
AcDbSymbolTableRecord
100
AcDbBlockTableRecord
  2
*D16
340
0
 70
0
280
1
281
0
  0
BLOCK_RECORD
  5
182
330
9
100
AcDbSymbolTableRecord
100
AcDbBlockTableRecord
  2
*D17
340
0
 70
0
280
1
281
0
  0
BLOCK_RECORD
  5
197
330
9
100
AcDbSymbolTableRecord
100
AcDbBlockTableRecord
  2
*D18
340
0
 70
0
280
1
281
0
  0
BLOCK_RECORD
  5
1A7
330
9
100
AcDbSymbolTableRecord
100
AcDbBlockTableRecord
  2
*D19
340
0
 70
0
280
1
281
0
  0
BLOCK_RECORD
  5
1B3
330
9
100
AcDbSymbolTableRecord
100
AcDbBlockTableRecord
  2
*D20
340
0
 70
0
280
1
281
0
  0
BLOCK_RECORD
  5
1BF
330
9
100
AcDbSymbolTableRecord
100
AcDbBlockTableRecord
  2
*D21
340
0
 70
0
280
1
281
0
  0
BLOCK_RECORD
  5
1CB
330
9
100
AcDbSymbolTableRecord
100
AcDbBlockTableRecord
  2
*D22
340
0
 70
0
280
1
281
0
  0
BLOCK_RECORD
  5
1D7
330
9
100
AcDbSymbolTableRecord
100
AcDbBlockTableRecord
  2
*D23
340
0
 70
0
280
1
281
0
  0
BLOCK_RECORD
  5
1E3
330
9
100
AcDbSymbolTableRecord
100
AcDbBlockTableRecord
  2
*D24
340
0
 70
0
280
1
281
0
  0
BLOCK_RECORD
  5
1EF
330
9
100
AcDbSymbolTableRecord
100
AcDbBlockTableRecord
  2
*D25
340
0
 70
0
280
1
281
0
  0
BLOCK_RECORD
  5
1F9
330
9
100
AcDbSymbolTableRecord
100
AcDbBlockTableRecord
  2
*D26
340
0
 70
0
280
1
281
0
  0
ENDTAB
  0
ENDSEC
  0
SECTION
  2
BLOCKS
  0
BLOCK
  5
18
330
17
100
AcDbEntity
  8
0
100
AcDbBlockBegin
  2
*Model_Space
 70
0
 10
0.0
 20
0.0
 30
0.0
  3
*Model_Space
  1

  0
ENDBLK
  5
19
330
17
100
AcDbEntity
  8
0
100
AcDbBlockEnd
  0
BLOCK
  5
1C
330
1B
100
AcDbEntity
  8
0
100
AcDbBlockBegin
  2
*Paper_Space
 70
0
 10
0.0
 20
0.0
 30
0.0
  3
*Paper_Space
  1

  0
ENDBLK
  5
1D
330
1B
100
AcDbEntity
  8
0
100
AcDbBlockEnd
  0
BLOCK
  5
75
330
74
100
AcDbEntity
  8
0
100
AcDbBlockBegin
  2
_ARCHTICK
 70
0
 10
0.0
 20
0.0
 30
0.0
  3
_ARCHTICK
  1

  0
LWPOLYLINE
  5
77
330
74
100
AcDbEntity
  8
0
  6
BYBLOCK
 62
0
100
AcDbPolyline
 90
2
 70
0
 43
0.15
 10
-0.5
 20
-0.5000000000000001
 10
0.5000000000000001
 20
0.5000000000000001
  0
ENDBLK
  5
76
330
74
100
AcDbEntity
  8
0
100
AcDbBlockEnd
  0
BLOCK
  5
79
330
78
100
AcDbEntity
  8
0
100
AcDbBlockBegin
  2
_CLOSEDFILLED
 70
0
 10
0.0
 20
0.0
 30
0.0
  3
_CLOSEDFILLED
  1

  0
SOLID
  5
7B
330
78
100
AcDbEntity
  8
0
  6
BYBLOCK
 62
0
100
AcDbTrace
 10
-1.0
 20
0.1643989837240255
 30
0.0
 11
0.0
 21
0.0
 31
0.0
 12
-1.0
 22
-0.1643989837240255
 32
0.0
 13
-1.0
 23
-0.1643989837240255
 33
0.0
  0
ENDBLK
  5
7A
330
78
100
AcDbEntity
  8
0
100
AcDbBlockEnd
  0
BLOCK
  5
85
330
84
100
AcDbEntity
  8
0
100
AcDbBlockBegin
  2
_CLOSEDBLANK
 70
0
 10
0.0
 20
0.0
 30
0.0
  3
_CLOSEDBLANK
  1

  0
LWPOLYLINE
  5
87
330
84
100
AcDbEntity
  8
0
  6
BYBLOCK
 62
0
100
AcDbPolyline
 90
3
 70
1
 10
-1.0
 20
0.1643989837240255
 10
0.0
 20
0.0
 10
-1.0
 20
-0.1643989837240255
  0
ENDBLK
  5
86
330
84
100
AcDbEntity
  8
0
100
AcDbBlockEnd
  0
BLOCK
  5
AD
330
AC
100
AcDbEntity
  8
0
100
AcDbBlockBegin
  2
*D1
 70
1
 10
0.0
 20
0.0
 30
0.0
  3
*D1
  1

  0
INSERT
  5
AF
330
AC
100
AcDbEntity
  8
dimensions
100
AcDbBlockReference
  2
_CLOSEDBLANK
 10
0.3024264068711929
 20
-16.30242640687119
 30
0.0
 41
0.2
 42
0.2
 50
134.9999999999996
  0
LINE
  5
B1
330
AC
100
AcDbEntity
  8
0
100
AcDbLine
 10
0.4438477631085014
 20
-16.4438477631085
 30
0.0
 11
0.5852691193458099
 21
-16.585269119345813
 31
0.0
  0
LINE
  5
B2
330
AC
100
AcDbEntity
  8
0
100
AcDbLine
 10
0.5852691193458099
 20
-16.585269119345813
 30
0.0
 11
0.7852691193458099
 21
-16.585269119345813
 31
0.0
  0
MTEXT
  5
B3
330
AC
100
AcDbEntity
  8
dimensions
100
AcDbMText
 10
1.16026911934581
 20
-16.585269119345813
 30
0.0
 40
0.25
 71
5
  1
%%c12
  7
OpenSansCondensed-Light
  0
POINT
  5
B4
330
AC
100
AcDbEntity
  8
Defpoints
100
AcDbPoint
 10
0.26
 20
-16.259999999999998
 30
0.0
  0
POINT
  5
B5
330
AC
100
AcDbEntity
  8
Defpoints
100
AcDbPoint
 10
0.3024264068711929
 20
-16.30242640687119
 30
0.0
  0
ENDBLK
  5
AE
330
AC
100
AcDbEntity
  8
0
100
AcDbBlockEnd
  0
BLOCK
  5
B9
330
B8
100
AcDbEntity
  8
0
100
AcDbBlockBegin
  2
*D2
 70
1
 10
0.0
 20
0.0
 30
0.0
  3
*D2
  1

  0
INSERT
  5
BB
330
B8
100
AcDbEntity
  8
dimensions
100
AcDbBlockReference
  2
_CLOSEDBLANK
 10
1.1157597402045263
 20
-16.30242640687119
 30
0.0
 41
0.2
 42
0.2
 50
134.99999999999955
  0
LINE
  5
BD
330
B8
100
AcDbEntity
  8
0
100
AcDbLine
 10
1.2571810964418346
 20
-16.4438477631085
 30
0.0
 11
1.398602452679143
 21
-16.585269119345813
 31
0.0
  0
LINE
  5
BE
330
B8
100
AcDbEntity
  8
0
100
AcDbLine
 10
1.398602452679143
 20
-16.585269119345813
 30
0.0
 11
1.598602452679143
 21
-16.585269119345813
 31
0.0
  0
MTEXT
  5
BF
330
B8
100
AcDbEntity
  8
dimensions
100
AcDbMText
 10
1.973602452679143
 20
-16.585269119345813
 30
0.0
 40
0.25
 71
5
  1
%%c12
  7
OpenSansCondensed-Light
  0
POINT
  5
C0
330
B8
100
AcDbEntity
  8
Defpoints
100
AcDbPoint
 10
1.0733333333333335
 20
-16.259999999999998
 30
0.0
  0
POINT
  5
C1
330
B8
100
AcDbEntity
  8
Defpoints
100
AcDbPoint
 10
1.1157597402045263
 20
-16.30242640687119
 30
0.0
  0
ENDBLK
  5
BA
330
B8
100
AcDbEntity
  8
0
100
AcDbBlockEnd
  0
BLOCK
  5
C5
330
C4
100
AcDbEntity
  8
0
100
AcDbBlockBegin
  2
*D3
 70
1
 10
0.0
 20
0.0
 30
0.0
  3
*D3
  1

  0
INSERT
  5
C7
330
C4
100
AcDbEntity
  8
dimensions
100
AcDbBlockReference
  2
_CLOSEDBLANK
 10
1.9890930735378596
 20
-16.30242640687119
 30
0.0
 41
0.2
 42
0.2
 50
134.99999999999955
  0
LINE
  5
C9
330
C4
100
AcDbEntity
  8
0
100
AcDbLine
 10
2.130514429775168
 20
-16.4438477631085
 30
0.0
 11
2.2719357860124765
 21
-16.585269119345813
 31
0.0
  0
LINE
  5
CA
330
C4
100
AcDbEntity
  8
0
100
AcDbLine
 10
2.2719357860124765
 20
-16.585269119345813
 30
0.0
 11
2.4719357860124767
 21
-16.585269119345813
 31
0.0
  0
MTEXT
  5
CB
330
C4
100
AcDbEntity
  8
dimensions
100
AcDbMText
 10
2.8469357860124767
 20
-16.585269119345813
 30
0.0
 40
0.25
 71
5
  1
%%c12
  7
OpenSansCondensed-Light
  0
POINT
  5
CC
330
C4
100
AcDbEntity
  8
Defpoints
100
AcDbPoint
 10
1.9466666666666668
 20
-16.259999999999998
 30
0.0
  0
POINT
  5
CD
330
C4
100
AcDbEntity
  8
Defpoints
100
AcDbPoint
 10
1.9890930735378596
 20
-16.30242640687119
 30
0.0
  0
ENDBLK
  5
C6
330
C4
100
AcDbEntity
  8
0
100
AcDbBlockEnd
  0
BLOCK
  5
D1
330
D0
100
AcDbEntity
  8
0
100
AcDbBlockBegin
  2
*D4
 70
1
 10
0.0
 20
0.0
 30
0.0
  3
*D4
  1

  0
INSERT
  5
D3
330
D0
100
AcDbEntity
  8
dimensions
100
AcDbBlockReference
  2
_CLOSEDBLANK
 10
2.802426406871193
 20
-16.30242640687119
 30
0.0
 41
0.2
 42
0.2
 50
134.9999999999997
  0
LINE
  5
D5
330
D0
100
AcDbEntity
  8
0
100
AcDbLine
 10
2.9438477631085016
 20
-16.4438477631085
 30
0.0
 11
3.0852691193458104
 21
-16.585269119345813
 31
0.0
  0
LINE
  5
D6
330
D0
100
AcDbEntity
  8
0
100
AcDbLine
 10
3.0852691193458104
 20
-16.585269119345813
 30
0.0
 11
3.2852691193458106
 21
-16.585269119345813
 31
0.0
  0
MTEXT
  5
D7
330
D0
100
AcDbEntity
  8
dimensions
100
AcDbMText
 10
3.66026911934581
 20
-16.585269119345813
 30
0.0
 40
0.25
 71
5
  1
%%c12
  7
OpenSansCondensed-Light
  0
POINT
  5
D8
330
D0
100
AcDbEntity
  8
Defpoints
100
AcDbPoint
 10
2.76
 20
-16.259999999999998
 30
0.0
  0
POINT
  5
D9
330
D0
100
AcDbEntity
  8
Defpoints
100
AcDbPoint
 10
2.802426406871193
 20
-16.30242640687119
 30
0.0
  0
ENDBLK
  5
D2
330
D0
100
AcDbEntity
  8
0
100
AcDbBlockEnd
  0
BLOCK
  5
DD
330
DC
100
AcDbEntity
  8
0
100
AcDbBlockBegin
  2
*D5
 70
1
 10
0.0
 20
0.0
 30
0.0
  3
*D5
  1

  0
INSERT
  5
DF
330
DC
100
AcDbEntity
  8
dimensions
100
AcDbBlockReference
  2
_CLOSEDBLANK
 10
0.33656854249492385
 20
-19.776568542494925
 30
0.0
 41
0.2
 42
0.2
 50
135.0000000000008
  0
LINE
  5
E1
330
DC
100
AcDbEntity
  8
0
100
AcDbLine
 10
0.4779898987322353
 20
-19.917989898732234
 30
0.0
 11
0.6194112549695467
 21
-20.05941125496954
 31
0.0
  0
LINE
  5
E2
330
DC
100
AcDbEntity
  8
0
100
AcDbLine
 10
0.6194112549695467
 20
-20.05941125496954
 30
0.0
 11
0.8194112549695467
 21
-20.05941125496954
 31
0.0
  0
MTEXT
  5
E3
330
DC
100
AcDbEntity
  8
dimensions
100
AcDbMText
 10
1.1944112549695467
 20
-20.05941125496954
 30
0.0
 40
0.25
 71
5
  1
%%c16
  7
OpenSansCondensed-Light
  0
POINT
  5
E4
330
DC
100
AcDbEntity
  8
Defpoints
100
AcDbPoint
 10
0.28
 20
-19.720000000000002
 30
0.0
  0
POINT
  5
E5
330
DC
100
AcDbEntity
  8
Defpoints
100
AcDbPoint
 10
0.33656854249492385
 20
-19.776568542494925
 30
0.0
  0
ENDBLK
  5
DE
330
DC
100
AcDbEntity
  8
0
100
AcDbBlockEnd
  0
BLOCK
  5
E9
330
E8
100
AcDbEntity
  8
0
100
AcDbBlockBegin
  2
*D6
 70
1
 10
0.0
 20
0.0
 30
0.0
  3
*D6
  1

  0
INSERT
  5
EB
330
E8
100
AcDbEntity
  8
dimensions
100
AcDbBlockReference
  2
_CLOSEDBLANK
 10
1.5665685424949236
 20
-19.776568542494925
 30
0.0
 41
0.2
 42
0.2
 50
135.0000000000008
  0
LINE
  5
ED
330
E8
100
AcDbEntity
  8
0
100
AcDbLine
 10
1.707989898732235
 20
-19.917989898732234
 30
0.0
 11
1.8494112549695465
 21
-20.05941125496954
 31
0.0
  0
LINE
  5
EE
330
E8
100
AcDbEntity
  8
0
100
AcDbLine
 10
1.8494112549695465
 20
-20.05941125496954
 30
0.0
 11
2.0494112549695465
 21
-20.05941125496954
 31
0.0
  0
MTEXT
  5
EF
330
E8
100
AcDbEntity
  8
dimensions
100
AcDbMText
 10
2.4244112549695465
 20
-20.05941125496954
 30
0.0
 40
0.25
 71
5
  1
%%c16
  7
OpenSansCondensed-Light
  0
POINT
  5
F0
330
E8
100
AcDbEntity
  8
Defpoints
100
AcDbPoint
 10
1.5099999999999998
 20
-19.720000000000002
 30
0.0
  0
POINT
  5
F1
330
E8
100
AcDbEntity
  8
Defpoints
100
AcDbPoint
 10
1.5665685424949236
 20
-19.776568542494925
 30
0.0
  0
ENDBLK
  5
EA
330
E8
100
AcDbEntity
  8
0
100
AcDbBlockEnd
  0
BLOCK
  5
F5
330
F4
100
AcDbEntity
  8
0
100
AcDbBlockBegin
  2
*D7
 70
1
 10
0.0
 20
0.0
 30
0.0
  3
*D7
  1

  0
INSERT
  5
F7
330
F4
100
AcDbEntity
  8
dimensions
100
AcDbBlockReference
  2
_CLOSEDBLANK
 10
2.7965685424949234
 20
-19.776568542494925
 30
0.0
 41
0.2
 42
0.2
 50
135.00000000000068
  0
LINE
  5
F9
330
F4
100
AcDbEntity
  8
0
100
AcDbLine
 10
2.9379898987322344
 20
-19.917989898732234
 30
0.0
 11
3.079411254969546
 21
-20.05941125496954
 31
0.0
  0
LINE
  5
FA
330
F4
100
AcDbEntity
  8
0
100
AcDbLine
 10
3.079411254969546
 20
-20.05941125496954
 30
0.0
 11
3.279411254969546
 21
-20.05941125496954
 31
0.0
  0
MTEXT
  5
FB
330
F4
100
AcDbEntity
  8
dimensions
100
AcDbMText
 10
3.6544112549695456
 20
-20.05941125496954
 30
0.0
 40
0.25
 71
5
  1
%%c16
  7
OpenSansCondensed-Light
  0
POINT
  5
FC
330
F4
100
AcDbEntity
  8
Defpoints
100
AcDbPoint
 10
2.7399999999999998
 20
-19.720000000000002
 30
0.0
  0
POINT
  5
FD
330
F4
100
AcDbEntity
  8
Defpoints
100
AcDbPoint
 10
2.7965685424949234
 20
-19.776568542494925
 30
0.0
  0
ENDBLK
  5
F6
330
F4
100
AcDbEntity
  8
0
100
AcDbBlockEnd
  0
BLOCK
  5
101
330
100
100
AcDbEntity
  8
0
100
AcDbBlockBegin
  2
*D8
 70
1
 10
0.0
 20
0.0
 30
0.0
  3
*D8
  1

  0
LINE
  5
103
330
100
100
AcDbEntity
  8
0
100
AcDbLine
 10
-0.125
 20
-16.0
 30
0.0
 11
-3.395
 21
-16.0
 31
0.0
  0
LINE
  5
104
330
100
100
AcDbEntity
  8
0
100
AcDbLine
 10
-0.125
 20
-20.0
 30
0.0
 11
-3.395
 21
-20.0
 31
0.0
  0
INSERT
  5
105
330
100
100
AcDbEntity
  8
0
100
AcDbBlockReference
  2
_ARCHTICK
 10
-3.02
 20
-16.0
 30
0.0
 41
0.175
 42
0.175
 50
270.0
  0
INSERT
  5
107
330
100
100
AcDbEntity
  8
0
100
AcDbBlockReference
  2
_ARCHTICK
 10
-3.02
 20
-20.0
 30
0.0
 41
0.175
 42
0.175
 50
90.0
  0
LINE
  5
109
330
100
100
AcDbEntity
  8
0
100
AcDbLine
 10
-3.02
 20
-16.0
 30
0.0
 11
-3.02
 21
-20.0
 31
0.0
  0
MTEXT
  5
10A
330
100
100
AcDbEntity
  8
0
100
AcDbMText
 10
-2.42
 20
-18.0
 30
0.0
 40
1.0
 71
5
  1
400
  7
OpenSansCondensed-Light
 50
90.0
  0
POINT
  5
10B
330
100
100
AcDbEntity
  8
Defpoints
100
AcDbPoint
 10
-3.02
 20
-16.0
 30
0.0
  0
POINT
  5
10C
330
100
100
AcDbEntity
  8
Defpoints
100
AcDbPoint
 10
0.0
 20
-16.0
 30
0.0
  0
POINT
  5
10D
330
100
100
AcDbEntity
  8
Defpoints
100
AcDbPoint
 10
0.0
 20
-20.0
 30
0.0
  0
ENDBLK
  5
102
330
100
100
AcDbEntity
  8
0
100
AcDbBlockEnd
  0
BLOCK
  5
110
330
10F
100
AcDbEntity
  8
0
100
AcDbBlockBegin
  2
*D9
 70
1
 10
0.0
 20
0.0
 30
0.0
  3
*D9
  1

  0
LINE
  5
112
330
10F
100
AcDbEntity
  8
0
100
AcDbLine
 10
-3.145
 20
0.0
 30
0.0
 11
-6.415
 21
0.0
 31
0.0
  0
LINE
  5
113
330
10F
100
AcDbEntity
  8
0
100
AcDbLine
 10
-3.145
 20
4.0
 30
0.0
 11
-6.415
 21
4.0
 31
0.0
  0
INSERT
  5
114
330
10F
100
AcDbEntity
  8
0
100
AcDbBlockReference
  2
_ARCHTICK
 10
-6.04
 20
0.0
 30
0.0
 41
0.175
 42
0.175
 50
270.0
  0
INSERT
  5
116
330
10F
100
AcDbEntity
  8
0
100
AcDbBlockReference
  2
_ARCHTICK
 10
-6.04
 20
4.0
 30
0.0
 41
0.175
 42
0.175
 50
90.0
  0
LINE
  5
118
330
10F
100
AcDbEntity
  8
0
100
AcDbLine
 10
-6.04
 20
0.0
 30
0.0
 11
-6.04
 21
4.0
 31
0.0
  0
MTEXT
  5
119
330
10F
100
AcDbEntity
  8
0
100
AcDbMText
 10
-6.64
 20
2.0
 30
0.0
 40
1.0
 71
5
  1
400
  7
OpenSansCondensed-Light
 50
90.0
  0
POINT
  5
11A
330
10F
100
AcDbEntity
  8
Defpoints
100
AcDbPoint
 10
-6.04
 20
0.0
 30
0.0
  0
POINT
  5
11B
330
10F
100
AcDbEntity
  8
Defpoints
100
AcDbPoint
 10
-3.02
 20
0.0
 30
0.0
  0
POINT
  5
11C
330
10F
100
AcDbEntity
  8
Defpoints
100
AcDbPoint
 10
-3.02
 20
4.0
 30
0.0
  0
ENDBLK
  5
111
330
10F
100
AcDbEntity
  8
0
100
AcDbBlockEnd
  0
BLOCK
  5
12B
330
12A
100
AcDbEntity
  8
0
100
AcDbBlockBegin
  2
*D10
 70
1
 10
0.0
 20
0.0
 30
0.0
  3
*D10
  1

  0
LINE
  5
12D
330
12A
100
AcDbEntity
  8
0
100
AcDbLine
 10
21.855
 20
-20.0
 30
0.0
 11
19.625
 21
-20.0
 31
0.0
  0
LINE
  5
12E
330
12A
100
AcDbEntity
  8
0
100
AcDbLine
 10
21.855
 20
-16.0
 30
0.0
 11
19.625
 21
-16.0
 31
0.0
  0
INSERT
  5
12F
330
12A
100
AcDbEntity
  8
0
100
AcDbBlockReference
  2
_ARCHTICK
 10
20.0
 20
-20.0
 30
0.0
 41
0.175
 42
0.175
 50
270.0
  0
INSERT
  5
131
330
12A
100
AcDbEntity
  8
0
100
AcDbBlockReference
  2
_ARCHTICK
 10
20.0
 20
-16.0
 30
0.0
 41
0.175
 42
0.175
 50
90.0
  0
LINE
  5
133
330
12A
100
AcDbEntity
  8
0
100
AcDbLine
 10
20.0
 20
-20.0
 30
0.0
 11
20.0
 21
-16.0
 31
0.0
  0
MTEXT
  5
134
330
12A
100
AcDbEntity
  8
0
100
AcDbMText
 10
19.4
 20
-18.0
 30
0.0
 40
1.0
 71
5
  1
400
  7
OpenSansCondensed-Light
 50
90.0
  0
POINT
  5
135
330
12A
100
AcDbEntity
  8
Defpoints
100
AcDbPoint
 10
20.0
 20
-20.0
 30
0.0
  0
POINT
  5
136
330
12A
100
AcDbEntity
  8
Defpoints
100
AcDbPoint
 10
21.98
 20
-20.0
 30
0.0
  0
POINT
  5
137
330
12A
100
AcDbEntity
  8
Defpoints
100
AcDbPoint
 10
21.98
 20
-16.0
 30
0.0
  0
ENDBLK
  5
12C
330
12A
100
AcDbEntity
  8
0
100
AcDbBlockEnd
  0
BLOCK
  5
13B
330
13A
100
AcDbEntity
  8
0
100
AcDbBlockBegin
  2
*D11
 70
1
 10
0.0
 20
0.0
 30
0.0
  3
*D11
  1

  0
INSERT
  5
13D
330
13A
100
AcDbEntity
  8
dimensions
100
AcDbBlockReference
  2
_CLOSEDBLANK
 10
22.282426406871192
 20
-16.30242640687119
 30
0.0
 41
0.2
 42
0.2
 50
135.0
  0
LINE
  5
13F
330
13A
100
AcDbEntity
  8
0
100
AcDbLine
 10
22.4238477631085
 20
-16.4438477631085
 30
0.0
 11
22.56526911934581
 21
-16.58526911934581
 31
0.0
  0
LINE
  5
140
330
13A
100
AcDbEntity
  8
0
100
AcDbLine
 10
22.56526911934581
 20
-16.58526911934581
 30
0.0
 11
22.76526911934581
 21
-16.58526911934581
 31
0.0
  0
MTEXT
  5
141
330
13A
100
AcDbEntity
  8
dimensions
100
AcDbMText
 10
23.14026911934581
 20
-16.58526911934581
 30
0.0
 40
0.25
 71
5
  1
%%c12
  7
OpenSansCondensed-Light
  0
POINT
  5
142
330
13A
100
AcDbEntity
  8
Defpoints
100
AcDbPoint
 10
22.24
 20
-16.259999999999998
 30
0.0
  0
POINT
  5
143
330
13A
100
AcDbEntity
  8
Defpoints
100
AcDbPoint
 10
22.282426406871192
 20
-16.30242640687119
 30
0.0
  0
ENDBLK
  5
13C
330
13A
100
AcDbEntity
  8
0
100
AcDbBlockEnd
  0
BLOCK
  5
147
330
146
100
AcDbEntity
  8
0
100
AcDbBlockBegin
  2
*D12
 70
1
 10
0.0
 20
0.0
 30
0.0
  3
*D12
  1

  0
INSERT
  5
149
330
146
100
AcDbEntity
  8
dimensions
100
AcDbBlockReference
  2
_CLOSEDBLANK
 10
23.149093073537863
 20
-16.30242640687119
 30
0.0
 41
0.2
 42
0.2
 50
135.0
  0
LINE
  5
14B
330
146
100
AcDbEntity
  8
0
100
AcDbLine
 10
23.290514429775172
 20
-16.4438477631085
 30
0.0
 11
23.43193578601248
 21
-16.58526911934581
 31
0.0
  0
LINE
  5
14C
330
146
100
AcDbEntity
  8
0
100
AcDbLine
 10
23.43193578601248
 20
-16.58526911934581
 30
0.0
 11
23.63193578601248
 21
-16.58526911934581
 31
0.0
  0
MTEXT
  5
14D
330
146
100
AcDbEntity
  8
dimensions
100
AcDbMText
 10
24.00693578601248
 20
-16.58526911934581
 30
0.0
 40
0.25
 71
5
  1
%%c12
  7
OpenSansCondensed-Light
  0
POINT
  5
14E
330
146
100
AcDbEntity
  8
Defpoints
100
AcDbPoint
 10
23.10666666666667
 20
-16.259999999999998
 30
0.0
  0
POINT
  5
14F
330
146
100
AcDbEntity
  8
Defpoints
100
AcDbPoint
 10
23.149093073537863
 20
-16.30242640687119
 30
0.0
  0
ENDBLK
  5
148
330
146
100
AcDbEntity
  8
0
100
AcDbBlockEnd
  0
BLOCK
  5
153
330
152
100
AcDbEntity
  8
0
100
AcDbBlockBegin
  2
*D13
 70
1
 10
0.0
 20
0.0
 30
0.0
  3
*D13
  1

  0
INSERT
  5
155
330
152
100
AcDbEntity
  8
dimensions
100
AcDbBlockReference
  2
_CLOSEDBLANK
 10
23.915759740204525
 20
-16.30242640687119
 30
0.0
 41
0.2
 42
0.2
 50
135.0
  0
LINE
  5
157
330
152
100
AcDbEntity
  8
0
100
AcDbLine
 10
24.057181096441834
 20
-16.4438477631085
 30
0.0
 11
24.198602452679143
 21
-16.58526911934581
 31
0.0
  0
LINE
  5
158
330
152
100
AcDbEntity
  8
0
100
AcDbLine
 10
24.198602452679143
 20
-16.58526911934581
 30
0.0
 11
24.398602452679143
 21
-16.58526911934581
 31
0.0
  0
MTEXT
  5
159
330
152
100
AcDbEntity
  8
dimensions
100
AcDbMText
 10
24.773602452679143
 20
-16.58526911934581
 30
0.0
 40
0.25
 71
5
  1
%%c12
  7
OpenSansCondensed-Light
  0
POINT
  5
15A
330
152
100
AcDbEntity
  8
Defpoints
100
AcDbPoint
 10
23.87333333333333
 20
-16.259999999999998
 30
0.0
  0
POINT
  5
15B
330
152
100
AcDbEntity
  8
Defpoints
100
AcDbPoint
 10
23.915759740204525
 20
-16.30242640687119
 30
0.0
  0
ENDBLK
  5
154
330
152
100
AcDbEntity
  8
0
100
AcDbBlockEnd
  0
BLOCK
  5
15F
330
15E
100
AcDbEntity
  8
0
100
AcDbBlockBegin
  2
*D14
 70
1
 10
0.0
 20
0.0
 30
0.0
  3
*D14
  1

  0
INSERT
  5
161
330
15E
100
AcDbEntity
  8
dimensions
100
AcDbBlockReference
  2
_CLOSEDBLANK
 10
24.782426406871195
 20
-16.30242640687119
 30
0.0
 41
0.2
 42
0.2
 50
135.0
  0
LINE
  5
163
330
15E
100
AcDbEntity
  8
0
100
AcDbLine
 10
24.923847763108505
 20
-16.4438477631085
 30
0.0
 11
25.065269119345814
 21
-16.58526911934581
 31
0.0
  0
LINE
  5
164
330
15E
100
AcDbEntity
  8
0
100
AcDbLine
 10
25.065269119345814
 20
-16.58526911934581
 30
0.0
 11
25.265269119345813
 21
-16.58526911934581
 31
0.0
  0
MTEXT
  5
165
330
15E
100
AcDbEntity
  8
dimensions
100
AcDbMText
 10
25.640269119345813
 20
-16.58526911934581
 30
0.0
 40
0.25
 71
5
  1
%%c12
  7
OpenSansCondensed-Light
  0
POINT
  5
166
330
15E
100
AcDbEntity
  8
Defpoints
100
AcDbPoint
 10
24.740000000000002
 20
-16.259999999999998
 30
0.0
  0
POINT
  5
167
330
15E
100
AcDbEntity
  8
Defpoints
100
AcDbPoint
 10
24.782426406871195
 20
-16.30242640687119
 30
0.0
  0
ENDBLK
  5
160
330
15E
100
AcDbEntity
  8
0
100
AcDbBlockEnd
  0
BLOCK
  5
16B
330
16A
100
AcDbEntity
  8
0
100
AcDbBlockBegin
  2
*D15
 70
1
 10
0.0
 20
0.0
 30
0.0
  3
*D15
  1

  0
INSERT
  5
16D
330
16A
100
AcDbEntity
  8
dimensions
100
AcDbBlockReference
  2
_CLOSEDBLANK
 10
22.31656854249492
 20
-19.776568542494925
 30
0.0
 41
0.2
 42
0.2
 50
135.0
  0
LINE
  5
16F
330
16A
100
AcDbEntity
  8
0
100
AcDbLine
 10
22.45798989873223
 20
-19.917989898732234
 30
0.0
 11
22.59941125496954
 21
-20.059411254969543
 31
0.0
  0
LINE
  5
170
330
16A
100
AcDbEntity
  8
0
100
AcDbLine
 10
22.59941125496954
 20
-20.059411254969543
 30
0.0
 11
22.799411254969538
 21
-20.059411254969543
 31
0.0
  0
MTEXT
  5
171
330
16A
100
AcDbEntity
  8
dimensions
100
AcDbMText
 10
23.174411254969538
 20
-20.059411254969543
 30
0.0
 40
0.25
 71
5
  1
%%c16
  7
OpenSansCondensed-Light
  0
POINT
  5
172
330
16A
100
AcDbEntity
  8
Defpoints
100
AcDbPoint
 10
22.259999999999998
 20
-19.720000000000002
 30
0.0
  0
POINT
  5
173
330
16A
100
AcDbEntity
  8
Defpoints
100
AcDbPoint
 10
22.31656854249492
 20
-19.776568542494925
 30
0.0
  0
ENDBLK
  5
16C
330
16A
100
AcDbEntity
  8
0
100
AcDbBlockEnd
  0
BLOCK
  5
177
330
176
100
AcDbEntity
  8
0
100
AcDbBlockBegin
  2
*D16
 70
1
 10
0.0
 20
0.0
 30
0.0
  3
*D16
  1

  0
INSERT
  5
179
330
176
100
AcDbEntity
  8
dimensions
100
AcDbBlockReference
  2
_CLOSEDBLANK
 10
23.54656854249492
 20
-19.776568542494925
 30
0.0
 41
0.2
 42
0.2
 50
135.0
  0
LINE
  5
17B
330
176
100
AcDbEntity
  8
0
100
AcDbLine
 10
23.68798989873223
 20
-19.917989898732234
 30
0.0
 11
23.82941125496954
 21
-20.059411254969543
 31
0.0
  0
LINE
  5
17C
330
176
100
AcDbEntity
  8
0
100
AcDbLine
 10
23.82941125496954
 20
-20.059411254969543
 30
0.0
 11
24.02941125496954
 21
-20.059411254969543
 31
0.0
  0
MTEXT
  5
17D
330
176
100
AcDbEntity
  8
dimensions
100
AcDbMText
 10
24.40441125496954
 20
-20.059411254969543
 30
0.0
 40
0.25
 71
5
  1
%%c16
  7
OpenSansCondensed-Light
  0
POINT
  5
17E
330
176
100
AcDbEntity
  8
Defpoints
100
AcDbPoint
 10
23.49
 20
-19.720000000000002
 30
0.0
  0
POINT
  5
17F
330
176
100
AcDbEntity
  8
Defpoints
100
AcDbPoint
 10
23.54656854249492
 20
-19.776568542494925
 30
0.0
  0
ENDBLK
  5
178
330
176
100
AcDbEntity
  8
0
100
AcDbBlockEnd
  0
BLOCK
  5
183
330
182
100
AcDbEntity
  8
0
100
AcDbBlockBegin
  2
*D17
 70
1
 10
0.0
 20
0.0
 30
0.0
  3
*D17
  1

  0
INSERT
  5
185
330
182
100
AcDbEntity
  8
dimensions
100
AcDbBlockReference
  2
_CLOSEDBLANK
 10
24.776568542494925
 20
-19.776568542494925
 30
0.0
 41
0.2
 42
0.2
 50
135.0
  0
LINE
  5
187
330
182
100
AcDbEntity
  8
0
100
AcDbLine
 10
24.917989898732234
 20
-19.917989898732234
 30
0.0
 11
25.059411254969543
 21
-20.059411254969543
 31
0.0
  0
LINE
  5
188
330
182
100
AcDbEntity
  8
0
100
AcDbLine
 10
25.059411254969543
 20
-20.059411254969543
 30
0.0
 11
25.259411254969542
 21
-20.059411254969543
 31
0.0
  0
MTEXT
  5
189
330
182
100
AcDbEntity
  8
dimensions
100
AcDbMText
 10
25.634411254969542
 20
-20.059411254969543
 30
0.0
 40
0.25
 71
5
  1
%%c16
  7
OpenSansCondensed-Light
  0
POINT
  5
18A
330
182
100
AcDbEntity
  8
Defpoints
100
AcDbPoint
 10
24.720000000000002
 20
-19.720000000000002
 30
0.0
  0
POINT
  5
18B
330
182
100
AcDbEntity
  8
Defpoints
100
AcDbPoint
 10
24.776568542494925
 20
-19.776568542494925
 30
0.0
  0
ENDBLK
  5
184
330
182
100
AcDbEntity
  8
0
100
AcDbBlockEnd
  0
BLOCK
  5
198
330
197
100
AcDbEntity
  8
0
100
AcDbBlockBegin
  2
*D18
 70
1
 10
0.0
 20
0.0
 30
0.0
  3
*D18
  1

  0
LINE
  5
19A
330
197
100
AcDbEntity
  8
0
100
AcDbLine
 10
46.855
 20
-20.0
 30
0.0
 11
44.625
 21
-20.0
 31
0.0
  0
LINE
  5
19B
330
197
100
AcDbEntity
  8
0
100
AcDbLine
 10
46.855
 20
-16.0
 30
0.0
 11
44.625
 21
-16.0
 31
0.0
  0
INSERT
  5
19C
330
197
100
AcDbEntity
  8
0
100
AcDbBlockReference
  2
_ARCHTICK
 10
45.0
 20
-20.0
 30
0.0
 41
0.175
 42
0.175
 50
270.0
  0
INSERT
  5
19E
330
197
100
AcDbEntity
  8
0
100
AcDbBlockReference
  2
_ARCHTICK
 10
45.0
 20
-16.0
 30
0.0
 41
0.175
 42
0.175
 50
90.0
  0
LINE
  5
1A0
330
197
100
AcDbEntity
  8
0
100
AcDbLine
 10
45.0
 20
-20.0
 30
0.0
 11
45.0
 21
-16.0
 31
0.0
  0
MTEXT
  5
1A1
330
197
100
AcDbEntity
  8
0
100
AcDbMText
 10
44.4
 20
-18.0
 30
0.0
 40
1.0
 71
5
  1
400
  7
OpenSansCondensed-Light
 50
90.0
  0
POINT
  5
1A2
330
197
100
AcDbEntity
  8
Defpoints
100
AcDbPoint
 10
45.0
 20
-20.0
 30
0.0
  0
POINT
  5
1A3
330
197
100
AcDbEntity
  8
Defpoints
100
AcDbPoint
 10
46.98
 20
-20.0
 30
0.0
  0
POINT
  5
1A4
330
197
100
AcDbEntity
  8
Defpoints
100
AcDbPoint
 10
46.98
 20
-16.0
 30
0.0
  0
ENDBLK
  5
199
330
197
100
AcDbEntity
  8
0
100
AcDbBlockEnd
  0
BLOCK
  5
1A8
330
1A7
100
AcDbEntity
  8
0
100
AcDbBlockBegin
  2
*D19
 70
1
 10
0.0
 20
0.0
 30
0.0
  3
*D19
  1

  0
INSERT
  5
1AA
330
1A7
100
AcDbEntity
  8
dimensions
100
AcDbBlockReference
  2
_CLOSEDBLANK
 10
47.282426406871195
 20
-16.30242640687119
 30
0.0
 41
0.2
 42
0.2
 50
135.0
  0
LINE
  5
1AC
330
1A7
100
AcDbEntity
  8
0
100
AcDbLine
 10
47.423847763108505
 20
-16.4438477631085
 30
0.0
 11
47.565269119345814
 21
-16.58526911934581
 31
0.0
  0
LINE
  5
1AD
330
1A7
100
AcDbEntity
  8
0
100
AcDbLine
 10
47.565269119345814
 20
-16.58526911934581
 30
0.0
 11
47.76526911934582
 21
-16.58526911934581
 31
0.0
  0
MTEXT
  5
1AE
330
1A7
100
AcDbEntity
  8
dimensions
100
AcDbMText
 10
48.14026911934582
 20
-16.58526911934581
 30
0.0
 40
0.25
 71
5
  1
%%c12
  7
OpenSansCondensed-Light
  0
POINT
  5
1AF
330
1A7
100
AcDbEntity
  8
Defpoints
100
AcDbPoint
 10
47.24
 20
-16.259999999999998
 30
0.0
  0
POINT
  5
1B0
330
1A7
100
AcDbEntity
  8
Defpoints
100
AcDbPoint
 10
47.282426406871195
 20
-16.30242640687119
 30
0.0
  0
ENDBLK
  5
1A9
330
1A7
100
AcDbEntity
  8
0
100
AcDbBlockEnd
  0
BLOCK
  5
1B4
330
1B3
100
AcDbEntity
  8
0
100
AcDbBlockBegin
  2
*D20
 70
1
 10
0.0
 20
0.0
 30
0.0
  3
*D20
  1

  0
INSERT
  5
1B6
330
1B3
100
AcDbEntity
  8
dimensions
100
AcDbBlockReference
  2
_CLOSEDBLANK
 10
48.08909307353786
 20
-16.30242640687119
 30
0.0
 41
0.2
 42
0.2
 50
135.0
  0
LINE
  5
1B8
330
1B3
100
AcDbEntity
  8
0
100
AcDbLine
 10
48.23051442977517
 20
-16.4438477631085
 30
0.0
 11
48.37193578601248
 21
-16.58526911934581
 31
0.0
  0
LINE
  5
1B9
330
1B3
100
AcDbEntity
  8
0
100
AcDbLine
 10
48.37193578601248
 20
-16.58526911934581
 30
0.0
 11
48.57193578601248
 21
-16.58526911934581
 31
0.0
  0
MTEXT
  5
1BA
330
1B3
100
AcDbEntity
  8
dimensions
100
AcDbMText
 10
48.94693578601248
 20
-16.58526911934581
 30
0.0
 40
0.25
 71
5
  1
%%c12
  7
OpenSansCondensed-Light
  0
POINT
  5
1BB
330
1B3
100
AcDbEntity
  8
Defpoints
100
AcDbPoint
 10
48.04666666666667
 20
-16.259999999999998
 30
0.0
  0
POINT
  5
1BC
330
1B3
100
AcDbEntity
  8
Defpoints
100
AcDbPoint
 10
48.08909307353786
 20
-16.30242640687119
 30
0.0
  0
ENDBLK
  5
1B5
330
1B3
100
AcDbEntity
  8
0
100
AcDbBlockEnd
  0
BLOCK
  5
1C0
330
1BF
100
AcDbEntity
  8
0
100
AcDbBlockBegin
  2
*D21
 70
1
 10
0.0
 20
0.0
 30
0.0
  3
*D21
  1

  0
INSERT
  5
1C2
330
1BF
100
AcDbEntity
  8
dimensions
100
AcDbBlockReference
  2
_CLOSEDBLANK
 10
48.97575974020452
 20
-16.30242640687119
 30
0.0
 41
0.2
 42
0.2
 50
135.0
  0
LINE
  5
1C4
330
1BF
100
AcDbEntity
  8
0
100
AcDbLine
 10
49.11718109644183
 20
-16.4438477631085
 30
0.0
 11
49.25860245267914
 21
-16.58526911934581
 31
0.0
  0
LINE
  5
1C5
330
1BF
100
AcDbEntity
  8
0
100
AcDbLine
 10
49.25860245267914
 20
-16.58526911934581
 30
0.0
 11
49.458602452679145
 21
-16.58526911934581
 31
0.0
  0
MTEXT
  5
1C6
330
1BF
100
AcDbEntity
  8
dimensions
100
AcDbMText
 10
49.833602452679145
 20
-16.58526911934581
 30
0.0
 40
0.25
 71
5
  1
%%c12
  7
OpenSansCondensed-Light
  0
POINT
  5
1C7
330
1BF
100
AcDbEntity
  8
Defpoints
100
AcDbPoint
 10
48.93333333333333
 20
-16.259999999999998
 30
0.0
  0
POINT
  5
1C8
330
1BF
100
AcDbEntity
  8
Defpoints
100
AcDbPoint
 10
48.97575974020452
 20
-16.30242640687119
 30
0.0
  0
ENDBLK
  5
1C1
330
1BF
100
AcDbEntity
  8
0
100
AcDbBlockEnd
  0
BLOCK
  5
1CC
330
1CB
100
AcDbEntity
  8
0
100
AcDbBlockBegin
  2
*D22
 70
1
 10
0.0
 20
0.0
 30
0.0
  3
*D22
  1

  0
INSERT
  5
1CE
330
1CB
100
AcDbEntity
  8
dimensions
100
AcDbBlockReference
  2
_CLOSEDBLANK
 10
49.78242640687119
 20
-16.30242640687119
 30
0.0
 41
0.2
 42
0.2
 50
135.0
  0
LINE
  5
1D0
330
1CB
100
AcDbEntity
  8
0
100
AcDbLine
 10
49.9238477631085
 20
-16.4438477631085
 30
0.0
 11
50.06526911934581
 21
-16.58526911934581
 31
0.0
  0
LINE
  5
1D1
330
1CB
100
AcDbEntity
  8
0
100
AcDbLine
 10
50.06526911934581
 20
-16.58526911934581
 30
0.0
 11
50.26526911934581
 21
-16.58526911934581
 31
0.0
  0
MTEXT
  5
1D2
330
1CB
100
AcDbEntity
  8
dimensions
100
AcDbMText
 10
50.64026911934581
 20
-16.58526911934581
 30
0.0
 40
0.25
 71
5
  1
%%c12
  7
OpenSansCondensed-Light
  0
POINT
  5
1D3
330
1CB
100
AcDbEntity
  8
Defpoints
100
AcDbPoint
 10
49.739999999999995
 20
-16.259999999999998
 30
0.0
  0
POINT
  5
1D4
330
1CB
100
AcDbEntity
  8
Defpoints
100
AcDbPoint
 10
49.78242640687119
 20
-16.30242640687119
 30
0.0
  0
ENDBLK
  5
1CD
330
1CB
100
AcDbEntity
  8
0
100
AcDbBlockEnd
  0
BLOCK
  5
1D8
330
1D7
100
AcDbEntity
  8
0
100
AcDbBlockBegin
  2
*D23
 70
1
 10
0.0
 20
0.0
 30
0.0
  3
*D23
  1

  0
INSERT
  5
1DA
330
1D7
100
AcDbEntity
  8
dimensions
100
AcDbBlockReference
  2
_CLOSEDBLANK
 10
47.31656854249492
 20
-19.776568542494925
 30
0.0
 41
0.2
 42
0.2
 50
135.0
  0
LINE
  5
1DC
330
1D7
100
AcDbEntity
  8
0
100
AcDbLine
 10
47.45798989873223
 20
-19.917989898732234
 30
0.0
 11
47.59941125496954
 21
-20.059411254969543
 31
0.0
  0
LINE
  5
1DD
330
1D7
100
AcDbEntity
  8
0
100
AcDbLine
 10
47.59941125496954
 20
-20.059411254969543
 30
0.0
 11
47.79941125496954
 21
-20.059411254969543
 31
0.0
  0
MTEXT
  5
1DE
330
1D7
100
AcDbEntity
  8
dimensions
100
AcDbMText
 10
48.17441125496954
 20
-20.059411254969543
 30
0.0
 40
0.25
 71
5
  1
%%c16
  7
OpenSansCondensed-Light
  0
POINT
  5
1DF
330
1D7
100
AcDbEntity
  8
Defpoints
100
AcDbPoint
 10
47.26
 20
-19.720000000000002
 30
0.0
  0
POINT
  5
1E0
330
1D7
100
AcDbEntity
  8
Defpoints
100
AcDbPoint
 10
47.31656854249492
 20
-19.776568542494925
 30
0.0
  0
ENDBLK
  5
1D9
330
1D7
100
AcDbEntity
  8
0
100
AcDbBlockEnd
  0
BLOCK
  5
1E4
330
1E3
100
AcDbEntity
  8
0
100
AcDbBlockBegin
  2
*D24
 70
1
 10
0.0
 20
0.0
 30
0.0
  3
*D24
  1

  0
INSERT
  5
1E6
330
1E3
100
AcDbEntity
  8
dimensions
100
AcDbBlockReference
  2
_CLOSEDBLANK
 10
48.54656854249492
 20
-19.776568542494925
 30
0.0
 41
0.2
 42
0.2
 50
135.0
  0
LINE
  5
1E8
330
1E3
100
AcDbEntity
  8
0
100
AcDbLine
 10
48.687989898732226
 20
-19.917989898732234
 30
0.0
 11
48.829411254969536
 21
-20.059411254969543
 31
0.0
  0
LINE
  5
1E9
330
1E3
100
AcDbEntity
  8
0
100
AcDbLine
 10
48.829411254969536
 20
-20.059411254969543
 30
0.0
 11
49.02941125496954
 21
-20.059411254969543
 31
0.0
  0
MTEXT
  5
1EA
330
1E3
100
AcDbEntity
  8
dimensions
100
AcDbMText
 10
49.40441125496954
 20
-20.059411254969543
 30
0.0
 40
0.25
 71
5
  1
%%c16
  7
OpenSansCondensed-Light
  0
POINT
  5
1EB
330
1E3
100
AcDbEntity
  8
Defpoints
100
AcDbPoint
 10
48.489999999999995
 20
-19.720000000000002
 30
0.0
  0
POINT
  5
1EC
330
1E3
100
AcDbEntity
  8
Defpoints
100
AcDbPoint
 10
48.54656854249492
 20
-19.776568542494925
 30
0.0
  0
ENDBLK
  5
1E5
330
1E3
100
AcDbEntity
  8
0
100
AcDbBlockEnd
  0
BLOCK
  5
1F0
330
1EF
100
AcDbEntity
  8
0
100
AcDbBlockBegin
  2
*D25
 70
1
 10
0.0
 20
0.0
 30
0.0
  3
*D25
  1

  0
INSERT
  5
1F2
330
1EF
100
AcDbEntity
  8
dimensions
100
AcDbBlockReference
  2
_CLOSEDBLANK
 10
49.77656854249492
 20
-19.776568542494925
 30
0.0
 41
0.2
 42
0.2
 50
135.0
  0
LINE
  5
1F4
330
1EF
100
AcDbEntity
  8
0
100
AcDbLine
 10
49.91798989873223
 20
-19.917989898732234
 30
0.0
 11
50.05941125496954
 21
-20.059411254969543
 31
0.0
  0
LINE
  5
1F5
330
1EF
100
AcDbEntity
  8
0
100
AcDbLine
 10
50.05941125496954
 20
-20.059411254969543
 30
0.0
 11
50.25941125496954
 21
-20.059411254969543
 31
0.0
  0
MTEXT
  5
1F6
330
1EF
100
AcDbEntity
  8
dimensions
100
AcDbMText
 10
50.63441125496954
 20
-20.059411254969543
 30
0.0
 40
0.25
 71
5
  1
%%c16
  7
OpenSansCondensed-Light
  0
POINT
  5
1F7
330
1EF
100
AcDbEntity
  8
Defpoints
100
AcDbPoint
 10
49.72
 20
-19.720000000000002
 30
0.0
  0
POINT
  5
1F8
330
1EF
100
AcDbEntity
  8
Defpoints
100
AcDbPoint
 10
49.77656854249492
 20
-19.776568542494925
 30
0.0
  0
ENDBLK
  5
1F1
330
1EF
100
AcDbEntity
  8
0
100
AcDbBlockEnd
  0
BLOCK
  5
1FA
330
1F9
100
AcDbEntity
  8
0
100
AcDbBlockBegin
  2
*D26
 70
1
 10
0.0
 20
0.0
 30
0.0
  3
*D26
  1

  0
LINE
  5
1FC
330
1F9
100
AcDbEntity
  8
0
100
AcDbLine
 10
0.0
 20
-0.125
 30
0.0
 11
0.0
 21
-8.375
 31
0.0
  0
LINE
  5
1FD
330
1F9
100
AcDbEntity
  8
0
100
AcDbLine
 10
50.0
 20
-0.125
 30
0.0
 11
50.0
 21
-8.375
 31
0.0
  0
INSERT
  5
1FE
330
1F9
100
AcDbEntity
  8
0
100
AcDbBlockReference
  2
_ARCHTICK
 10
0.0
 20
-8.0
 30
0.0
 41
0.175
 42
0.175
 50
180.0
  0
INSERT
  5
200
330
1F9
100
AcDbEntity
  8
0
100
AcDbBlockReference
  2
_ARCHTICK
 10
50.0
 20
-8.0
 30
0.0
 41
0.175
 42
0.175
  0
LINE
  5
202
330
1F9
100
AcDbEntity
  8
0
100
AcDbLine
 10
0.0
 20
-8.0
 30
0.0
 11
50.0
 21
-8.0
 31
0.0
  0
MTEXT
  5
203
330
1F9
100
AcDbEntity
  8
0
100
AcDbMText
 10
25.0
 20
-7.4
 30
0.0
 40
1.0
 71
5
  1
5000
  7
OpenSansCondensed-Light
  0
POINT
  5
204
330
1F9
100
AcDbEntity
  8
Defpoints
100
AcDbPoint
 10
0.0
 20
-8.0
 30
0.0
  0
POINT
  5
205
330
1F9
100
AcDbEntity
  8
Defpoints
100
AcDbPoint
 10
0.0
 20
0.0
 30
0.0
  0
POINT
  5
206
330
1F9
100
AcDbEntity
  8
Defpoints
100
AcDbPoint
 10
50.0
 20
0.0
 30
0.0
  0
ENDBLK
  5
1FB
330
1F9
100
AcDbEntity
  8
0
100
AcDbBlockEnd
  0
ENDSEC
  0
SECTION
  2
ENTITIES
  0
LINE
  5
8B
330
17
100
AcDbEntity
  8
0
100
AcDbLine
 10
-2.82
 20
3.8
 30
0.0
 11
52.82
 21
3.8
 31
0.0
  0
LINE
  5
8C
330
17
100
AcDbEntity
  8
0
100
AcDbLine
 10
-2.82
 20
0.2
 30
0.0
 11
52.82
 21
0.2
 31
0.0
  0
LINE
  5
8D
330
17
100
AcDbEntity
  8
0
100
AcDbLine
 10
0.0
 20
0.0
 30
0.0
 11
53.02
 21
0.0
 31
0.0
  0
LINE
  5
8E
330
17
100
AcDbEntity
  8
0
100
AcDbLine
 10
0.0
 20
0.0
 30
0.0
 11
-3.02
 21
0.0
 31
0.0
  0
LINE
  5
8F
330
17
100
AcDbEntity
  8
0
100
AcDbLine
 10
-3.02
 20
0.0
 30
0.0
 11
-3.02
 21
4.0
 31
0.0
  0
LINE
  5
90
330
17
100
AcDbEntity
  8
0
100
AcDbLine
 10
-3.02
 20
4.0
 30
0.0
 11
0.0
 21
4.0
 31
0.0
  0
LINE
  5
91
330
17
100
AcDbEntity
  8
0
100
AcDbLine
 10
-3.02
 20
0.0
 30
0.0
 11
-3.02
 21
-4.0
 31
0.0
  0
LINE
  5
92
330
17
100
AcDbEntity
  8
0
100
AcDbLine
 10
-3.02
 20
-4.0
 30
0.0
 11
0.0
 21
-4.0
 31
0.0
  0
LINE
  5
93
330
17
100
AcDbEntity
  8
0
100
AcDbLine
 10
0.0
 20
-4.0
 30
0.0
 11
0.0
 21
0.0
 31
0.0
  0
LINE
  5
94
330
17
100
AcDbEntity
  8
0
100
AcDbLine
 10
0.0
 20
4.0
 30
0.0
 11
53.02
 21
4.0
 31
0.0
  0
LINE
  5
95
330
17
100
AcDbEntity
  8
0
100
AcDbLine
 10
53.02
 20
4.0
 30
0.0
 11
53.02
 21
0.0
 31
0.0
  0
LINE
  5
96
330
17
100
AcDbEntity
  8
0
100
AcDbLine
 10
50.0
 20
0.0
 30
0.0
 11
50.0
 21
-4.0
 31
0.0
  0
LINE
  5
97
330
17
100
AcDbEntity
  8
0
100
AcDbLine
 10
50.0
 20
-4.0
 30
0.0
 11
53.02
 21
-4.0
 31
0.0
  0
LINE
  5
98
330
17
100
AcDbEntity
  8
0
100
AcDbLine
 10
53.02
 20
-4.0
 30
0.0
 11
53.02
 21
4.0
 31
0.0
  0
LINE
  5
99
330
17
100
AcDbEntity
  8
0
100
AcDbLine
 10
25.0
 20
0.0
 30
0.0
 11
25.0
 21
4.0
 31
0.0
  0
LINE
  5
9A
330
17
100
AcDbEntity
  8
0
100
AcDbLine
 10
0.0
 20
-20.0
 30
0.0
 11
3.02
 21
-20.0
 31
0.0
  0
LINE
  5
9B
330
17
100
AcDbEntity
  8
0
100
AcDbLine
 10
0.0
 20
-20.0
 30
0.0
 11
0.0
 21
-16.0
 31
0.0
  0
LINE
  5
9C
330
17
100
AcDbEntity
  8
0
100
AcDbLine
 10
0.0
 20
-16.0
 30
0.0
 11
3.02
 21
-16.0
 31
0.0
  0
LINE
  5
9D
330
17
100
AcDbEntity
  8
0
100
AcDbLine
 10
3.02
 20
-16.0
 30
0.0
 11
3.02
 21
-20.0
 31
0.0
  0
LINE
  5
9E
330
17
100
AcDbEntity
  8
0
100
AcDbLine
 10
0.2
 20
-19.8
 30
0.0
 11
2.82
 21
-19.8
 31
0.0
  0
LINE
  5
9F
330
17
100
AcDbEntity
  8
0
100
AcDbLine
 10
0.2
 20
-19.8
 30
0.0
 11
0.2
 21
-16.2
 31
0.0
  0
LINE
  5
A0
330
17
100
AcDbEntity
  8
0
100
AcDbLine
 10
0.2
 20
-16.2
 30
0.0
 11
2.82
 21
-16.2
 31
0.0
  0
LINE
  5
A1
330
17
100
AcDbEntity
  8
0
100
AcDbLine
 10
2.82
 20
-16.2
 30
0.0
 11
2.82
 21
-19.8
 31
0.0
  0
MULTILEADER
  5
A2
330
17
100
AcDbEntity
  8
0
100
AcDbMLeader
270
2
300
CONTEXT_DATA{
 40
1.0
 10
17.084541609822647
 20
-4.35
 30
0.0
 41
0.7
140
4.0
145
2.0
174
1
175
1
176
0
177
0
290
1
304
Provide, 3, , 16, - mm as \P main bars at the bottom
 11
0.0
 21
0.0
 31
1.0
340
43
 12
25.0
 22
-4.0
 32
0.0
 13
1.0
 23
0.0
 33
0.0
 42
0.0
 43
0.0
 44
0.0
 45
1.0
170
1
 90
-1056964608
171
2
172
1
 91
-939524096
141
1.5
 92
0
291
0
292
0
173
0
293
0
142
0.0
143
0.0
294
0
295
1
296
0
110
0.0
120
0.0
130
0.0
111
1.0
121
0.0
131
0.0
112
0.0
122
1.0
132
0.0
297
0
302
LEADER{
290
1
291
1
 10
9.084541609822647
 20
-4.35
 30
0.0
 11
1.0
 21
0.0
 31
0.0
 90
0
 40
8.0
304
LEADER_LINE{
 10
0.05
 20
0.2
 30
0.0
 91
0
 92
-1056964608
305
}
271
0
303
}
302
LEADER{
290
1
291
1
 10
40.91545839017735
 20
-4.35
 30
0.0
 11
-1.0
 21
-0.0
 31
-0.0
 90
1
 40
8.0
304
LEADER_LINE{
 10
50.0
 20
0.2
 30
0.0
 91
0
 92
-1056964608
305
}
271
0
303
}
272
9
273
9
301
}
340
2C
 90
2147483647
170
1
 91
-1056964608
341
25
171
-2
290
1
291
1
 41
8.0
 42
4.0
172
2
343
43
173
1
 95
1
174
1
175
0
 92
-1056964608
292
0
 93
-1056964608
 10
1.0
 20
1.0
 30
1.0
 43
0.0
176
0
293
0
294
0
178
0
179
2
 45
1.0
271
0
272
9
273
9
295
0
  0
MULTILEADER
  5
A3
330
17
100
AcDbEntity
  8
0
100
AcDbMLeader
270
2
300
CONTEXT_DATA{
 40
1.0
 10
17.57886289222374
 20
5.65
 30
0.0
 41
0.7
140
4.0
145
2.0
174
1
175
1
176
0
177
0
290
1
304
Provide, 4, -, 12, - mm \P as main bars at the top
 11
0.0
 21
0.0
 31
1.0
340
43
 12
25.0
 22
6.0
 32
0.0
 13
1.0
 23
0.0
 33
0.0
 42
0.0
 43
0.0
 44
0.0
 45
1.0
170
1
 90
-1056964608
171
2
172
1
 91
-939524096
141
1.5
 92
0
291
0
292
0
173
0
293
0
142
0.0
143
0.0
294
0
295
1
296
0
110
0.0
120
0.0
130
0.0
111
1.0
121
0.0
131
0.0
112
0.0
122
1.0
132
0.0
297
0
302
LEADER{
290
1
291
1
 10
40.42113710777626
 20
5.65
 30
0.0
 11
-1.0
 21
-0.0
 31
-0.0
 90
0
 40
8.0
304
LEADER_LINE{
 10
50.0
 20
3.8
 30
0.0
 91
0
 92
-1056964608
305
}
271
0
303
}
302
LEADER{
290
1
291
1
 10
9.57886289222374
 20
5.65
 30
0.0
 11
1.0
 21
0.0
 31
0.0
 90
1
 40
8.0
304
LEADER_LINE{
 10
0.05
 20
3.8
 30
0.0
 91
0
 92
-1056964608
305
}
271
0
303
}
272
9
273
9
301
}
340
2C
 90
2147483647
170
1
 91
-1056964608
341
25
171
-2
290
1
291
1
 41
8.0
 42
4.0
172
2
343
43
173
1
 95
1
174
1
175
0
 92
-1056964608
292
0
 93
-1056964608
 10
1.0
 20
1.0
 30
1.0
 43
0.0
176
0
293
0
294
0
178
0
179
2
 45
1.0
271
0
272
9
273
9
295
0
  0
MULTILEADER
  5
A4
330
17
100
AcDbEntity
  8
0
100
AcDbMLeader
270
2
300
CONTEXT_DATA{
 40
1.0
 10
38.0
 20
11.5
 30
0.0
 41
1.0
140
4.0
145
2.0
174
1
175
1
176
0
177
0
290
1
304
Provide , 8,  -mm, 2, \P legged vertical stirrups @, 250.0, c/c
 11
0.0
 21
0.0
 31
1.0
340
43
 12
40.0
 22
12.0
 32
0.0
 13
1.0
 23
0.0
 33
0.0
 42
0.0
 43
0.0
 44
0.0
 45
1.0
170
1
 90
-1056964608
171
1
172
1
 91
-939524096
141
1.5
 92
0
291
0
292
0
173
0
293
0
142
0.0
143
0.0
294
0
295
1
296
0
110
0.0
120
0.0
130
0.0
111
1.0
121
0.0
131
0.0
112
0.0
122
1.0
132
0.0
297
0
302
LEADER{
290
1
291
1
 10
30.0
 20
11.5
 30
0.0
 11
1.0
 21
0.0
 31
0.0
 90
0
 40
8.0
304
LEADER_LINE{
 10
25.0
 20
2.0
 30
0.0
 91
0
 92
-1056964608
305
}
271
0
303
}
272
9
273
9
301
}
340
2C
 90
2147483647
170
1
 91
-1056964608
341
25
171
-2
290
1
291
1
 41
8.0
 42
4.0
172
2
343
43
173
1
 95
1
174
1
175
0
 92
-1056964608
292
0
 93
-1056964608
 10
1.0
 20
1.0
 30
1.0
 43
0.0
176
0
293
0
294
0
178
0
179
1
 45
1.0
271
0
272
9
273
9
295
0
  0
DIMENSION
  5
A5
330
17
100
AcDbEntity
  8
0
100
AcDbDimension
280
0
  2
*D26
  3
EZDXF
 10
0.0
 20
-8.0
 30
0.0
 11
25.0
 21
-7.4
 31
0.0
 70
32
 71
5
  1
<>
100
AcDbAlignedDimension
 13
0.0
 23
0.0
 33
0.0
 14
50.0
 24
0.0
 34
0.0
 50
0.0
100
AcDbRotatedDimension
  0
DIMENSION
  5
A6
330
17
100
AcDbEntity
  8
0
100
AcDbDimension
280
0
  3
EZDXF
 10
0.0
 20
-8.0
 30
0.0
 70
32
 71
5
  1
<>
100
AcDbAlignedDimension
 13
-3.02
 23
-4.0
 33
0.0
 14
0.0
 24
-4.0
 34
0.0
 50
0.0
100
AcDbRotatedDimension
  0
DIMENSION
  5
A7
330
17
100
AcDbEntity
  8
0
100
AcDbDimension
280
0
  3
EZDXF
 10
0.0
 20
-8.0
 30
0.0
 70
32
 71
5
  1
<>
100
AcDbAlignedDimension
 13
50.0
 23
0.0
 33
0.0
 14
53.02
 24
0.0
 34
0.0
 50
0.0
100
AcDbRotatedDimension
  0
HATCH
  5
A8
330
17
100
AcDbEntity
  8
0
 62
7
100
AcDbHatch
 10
0.0
 20
0.0
 30
0.0
210
0.0
220
0.0
230
1.0
  2
ANSI32
 70
0
 71
0
 91
1
 92
3
 72
0
 73
1
 93
4
 10
0.0
 20
0.0
 10
-3.02
 20
0.0
 10
-3.02
 20
-4.0
 10
0.0
 20
-4.0
 97
0
 75
1
 76
1
 52
0.0
 41
0.1
 77
0
 78
2
 53
45.0
 43
0.0
 44
0.0
 45
-0.6735192091
 46
0.6735192091
 79
0
 53
45.0
 43
0.4490128053
 44
0.0
 45
-0.6735192091
 46
0.6735192091
 79
0
 98
0
  0
HATCH
  5
A9
330
17
100
AcDbEntity
  8
0
 62
7
100
AcDbHatch
 10
0.0
 20
0.0
 30
0.0
210
0.0
220
0.0
230
1.0
  2
ANSI32
 70
0
 71
0
 91
1
 92
3
 72
0
 73
1
 93
4
 10
50.0
 20
0.0
 10
53.02
 20
0.0
 10
53.02
 20
-4.0
 10
50.0
 20
-4.0
 97
0
 75
1
 76
1
 52
0.0
 41
0.1
 77
0
 78
2
 53
45.0
 43
0.0
 44
0.0
 45
-0.6735192091
 46
0.6735192091
 79
0
 53
45.0
 43
0.4490128053
 44
0.0
 45
-0.6735192091
 46
0.6735192091
 79
0
 98
0
  0
HATCH
  5
AA
330
17
100
AcDbEntity
  8
0
 62
7
100
AcDbHatch
 10
0.0
 20
0.0
 30
0.0
210
0.0
220
0.0
230
1.0
  2
SOLID
 70
1
 71
0
 91
1
 92
1
 93
1
 72
2
 10
0.26
 20
-16.259999999999998
 40
0.06
 50
0
 51
360
 73
1
 97
0
 75
1
 76
1
 98
0
  0
DIMENSION
  5
AB
330
17
100
AcDbEntity
  8
dimensions
100
AcDbDimension
280
0
  2
*D1
  3
EZ_RADIUS
 10
0.21757359312880717
 20
-16.217573593128805
 30
0.0
 11
0.5852691193458099
 21
-16.585269119345813
 31
0.0
 70
35
 71
5
  1
<>
100
AcDbDiametricDimension
 15
0.3024264068711929
 25
-16.30242640687119
 35
0.0
1001
ACAD
1000
DSTYLE
1002
{
1070
77
1070
0
1070
41
1040
0.2
1070
42
1040
5000.0
1070
74
1070
1
1070
144
1040
100.0
1002
}
  0
HATCH
  5
B6
330
17
100
AcDbEntity
  8
0
 62
7
100
AcDbHatch
 10
0.0
 20
0.0
 30
0.0
210
0.0
220
0.0
230
1.0
  2
SOLID
 70
1
 71
0
 91
1
 92
1
 93
1
 72
2
 10
1.0733333333333335
 20
-16.259999999999998
 40
0.06
 50
0
 51
360
 73
1
 97
0
 75
1
 76
1
 98
0
  0
DIMENSION
  5
B7
330
17
100
AcDbEntity
  8
dimensions
100
AcDbDimension
280
0
  2
*D2
  3
EZ_RADIUS
 10
1.0309069264621407
 20
-16.217573593128805
 30
0.0
 11
1.398602452679143
 21
-16.585269119345813
 31
0.0
 70
35
 71
5
  1
<>
100
AcDbDiametricDimension
 15
1.1157597402045263
 25
-16.30242640687119
 35
0.0
1001
ACAD
1000
DSTYLE
1002
{
1070
77
1070
0
1070
41
1040
0.2
1070
42
1040
5000.0
1070
74
1070
1
1070
144
1040
100.0
1002
}
  0
HATCH
  5
C2
330
17
100
AcDbEntity
  8
0
 62
7
100
AcDbHatch
 10
0.0
 20
0.0
 30
0.0
210
0.0
220
0.0
230
1.0
  2
SOLID
 70
1
 71
0
 91
1
 92
1
 93
1
 72
2
 10
1.9466666666666668
 20
-16.259999999999998
 40
0.06
 50
0
 51
360
 73
1
 97
0
 75
1
 76
1
 98
0
  0
DIMENSION
  5
C3
330
17
100
AcDbEntity
  8
dimensions
100
AcDbDimension
280
0
  2
*D3
  3
EZ_RADIUS
 10
1.904240259795474
 20
-16.217573593128805
 30
0.0
 11
2.2719357860124765
 21
-16.585269119345813
 31
0.0
 70
35
 71
5
  1
<>
100
AcDbDiametricDimension
 15
1.9890930735378596
 25
-16.30242640687119
 35
0.0
1001
ACAD
1000
DSTYLE
1002
{
1070
77
1070
0
1070
41
1040
0.2
1070
42
1040
5000.0
1070
74
1070
1
1070
144
1040
100.0
1002
}
  0
HATCH
  5
CE
330
17
100
AcDbEntity
  8
0
 62
7
100
AcDbHatch
 10
0.0
 20
0.0
 30
0.0
210
0.0
220
0.0
230
1.0
  2
SOLID
 70
1
 71
0
 91
1
 92
1
 93
1
 72
2
 10
2.76
 20
-16.259999999999998
 40
0.06
 50
0
 51
360
 73
1
 97
0
 75
1
 76
1
 98
0
  0
DIMENSION
  5
CF
330
17
100
AcDbEntity
  8
dimensions
100
AcDbDimension
280
0
  2
*D4
  3
EZ_RADIUS
 10
2.7175735931288068
 20
-16.217573593128805
 30
0.0
 11
3.0852691193458104
 21
-16.585269119345813
 31
0.0
 70
35
 71
5
  1
<>
100
AcDbDiametricDimension
 15
2.802426406871193
 25
-16.30242640687119
 35
0.0
1001
ACAD
1000
DSTYLE
1002
{
1070
77
1070
0
1070
41
1040
0.2
1070
42
1040
5000.0
1070
74
1070
1
1070
144
1040
100.0
1002
}
  0
HATCH
  5
DA
330
17
100
AcDbEntity
  8
0
 62
7
100
AcDbHatch
 10
0.0
 20
0.0
 30
0.0
210
0.0
220
0.0
230
1.0
  2
SOLID
 70
1
 71
0
 91
1
 92
1
 93
1
 72
2
 10
0.28
 20
-19.720000000000002
 40
0.08
 50
0
 51
360
 73
1
 97
0
 75
1
 76
1
 98
0
  0
DIMENSION
  5
DB
330
17
100
AcDbEntity
  8
dimensions
100
AcDbDimension
280
0
  2
*D5
  3
EZ_RADIUS
 10
0.22343145750507623
 20
-19.66343145750508
 30
0.0
 11
0.6194112549695467
 21
-20.05941125496954
 31
0.0
 70
35
 71
5
  1
<>
100
AcDbDiametricDimension
 15
0.33656854249492385
 25
-19.776568542494925
 35
0.0
1001
ACAD
1000
DSTYLE
1002
{
1070
77
1070
0
1070
41
1040
0.2
1070
42
1040
5000.0
1070
74
1070
1
1070
144
1040
100.0
1002
}
  0
HATCH
  5
E6
330
17
100
AcDbEntity
  8
0
 62
7
100
AcDbHatch
 10
0.0
 20
0.0
 30
0.0
210
0.0
220
0.0
230
1.0
  2
SOLID
 70
1
 71
0
 91
1
 92
1
 93
1
 72
2
 10
1.5099999999999998
 20
-19.720000000000002
 40
0.08
 50
0
 51
360
 73
1
 97
0
 75
1
 76
1
 98
0
  0
DIMENSION
  5
E7
330
17
100
AcDbEntity
  8
dimensions
100
AcDbDimension
280
0
  2
*D6
  3
EZ_RADIUS
 10
1.453431457505076
 20
-19.66343145750508
 30
0.0
 11
1.8494112549695465
 21
-20.05941125496954
 31
0.0
 70
35
 71
5
  1
<>
100
AcDbDiametricDimension
 15
1.5665685424949236
 25
-19.776568542494925
 35
0.0
1001
ACAD
1000
DSTYLE
1002
{
1070
77
1070
0
1070
41
1040
0.2
1070
42
1040
5000.0
1070
74
1070
1
1070
144
1040
100.0
1002
}
  0
HATCH
  5
F2
330
17
100
AcDbEntity
  8
0
 62
7
100
AcDbHatch
 10
0.0
 20
0.0
 30
0.0
210
0.0
220
0.0
230
1.0
  2
SOLID
 70
1
 71
0
 91
1
 92
1
 93
1
 72
2
 10
2.7399999999999998
 20
-19.720000000000002
 40
0.08
 50
0
 51
360
 73
1
 97
0
 75
1
 76
1
 98
0
  0
DIMENSION
  5
F3
330
17
100
AcDbEntity
  8
dimensions
100
AcDbDimension
280
0
  2
*D7
  3
EZ_RADIUS
 10
2.683431457505076
 20
-19.66343145750508
 30
0.0
 11
3.079411254969546
 21
-20.05941125496954
 31
0.0
 70
35
 71
5
  1
<>
100
AcDbDiametricDimension
 15
2.7965685424949234
 25
-19.776568542494925
 35
0.0
1001
ACAD
1000
DSTYLE
1002
{
1070
77
1070
0
1070
41
1040
0.2
1070
42
1040
5000.0
1070
74
1070
1
1070
144
1040
100.0
1002
}
  0
DIMENSION
  5
FE
330
17
100
AcDbEntity
  8
0
100
AcDbDimension
280
0
  3
EZDXF
 10
0.0
 20
-22.0
 30
0.0
 70
32
 71
5
  1
<>
100
AcDbAlignedDimension
 13
0.0
 23
-16.0
 33
0.0
 14
3.02
 24
-16.0
 34
0.0
 50
0.0
100
AcDbRotatedDimension
  0
DIMENSION
  5
FF
330
17
100
AcDbEntity
  8
0
100
AcDbDimension
280
0
  2
*D8
  3
EZDXF
 10
-3.02
 20
-16.0
 30
0.0
 11
-2.42
 21
-18.0
 31
0.0
 70
32
 71
5
  1
<>
100
AcDbAlignedDimension
 13
0.0
 23
-16.0
 33
0.0
 14
0.0
 24
-20.0
 34
0.0
 50
90.0
100
AcDbRotatedDimension
  0
DIMENSION
  5
10E
330
17
100
AcDbEntity
  8
0
100
AcDbDimension
280
0
  2
*D9
  3
EZDXF
 10
-6.04
 20
0.0
 30
0.0
 11
-6.64
 21
2.0
 31
0.0
 70
32
 71
5
  1
<>
100
AcDbAlignedDimension
 13
-3.02
 23
0.0
 33
0.0
 14
-3.02
 24
4.0
 34
0.0
 50
90.0
100
AcDbRotatedDimension
  0
TEXT
  5
11D
330
17
100
AcDbEntity
  8
0
 62
7
100
AcDbText
 10
5.0
 20
-12.0
 30
0.0
 40
1.0
  1
LONGITUDINAL SECTION (all units are in mm)
  7
OpenSans
100
AcDbText
  0
TEXT
  5
11E
330
17
100
AcDbEntity
  8
0
 62
7
100
AcDbText
 10
-3.02
 20
-28.0
 30
0.0
 40
1.0
  1
SECTION A-A
  7
OpenSans
100
AcDbText
  0
TEXT
  5
11F
330
17
100
AcDbEntity
  8
0
 62
7
100
AcDbText
 10
20.0
 20
-28.0
 30
0.0
 40
1.0
  1
SECTION B-B
  7
OpenSans
100
AcDbText
  0
LINE
  5
120
330
17
100
AcDbEntity
  8
0
100
AcDbLine
 10
25.0
 20
-20.0
 30
0.0
 11
21.98
 21
-20.0
 31
0.0
  0
LINE
  5
121
330
17
100
AcDbEntity
  8
0
100
AcDbLine
 10
21.98
 20
-20.0
 30
0.0
 11
21.98
 21
-16.0
 31
0.0
  0
LINE
  5
122
330
17
100
AcDbEntity
  8
0
100
AcDbLine
 10
21.98
 20
-16.0
 30
0.0
 11
25.0
 21
-16.0
 31
0.0
  0
LINE
  5
123
330
17
100
AcDbEntity
  8
0
100
AcDbLine
 10
25.0
 20
-16.0
 30
0.0
 11
25.0
 21
-20.0
 31
0.0
  0
LINE
  5
124
330
17
100
AcDbEntity
  8
0
100
AcDbLine
 10
24.8
 20
-19.8
 30
0.0
 11
22.18
 21
-19.8
 31
0.0
  0
LINE
  5
125
330
17
100
AcDbEntity
  8
0
100
AcDbLine
 10
22.18
 20
-19.8
 30
0.0
 11
22.18
 21
-16.2
 31
0.0
  0
LINE
  5
126
330
17
100
AcDbEntity
  8
0
100
AcDbLine
 10
22.18
 20
-16.2
 30
0.0
 11
24.8
 21
-16.2
 31
0.0
  0
LINE
  5
127
330
17
100
AcDbEntity
  8
0
100
AcDbLine
 10
24.8
 20
-16.2
 30
0.0
 11
24.8
 21
-19.8
 31
0.0
  0
DIMENSION
  5
128
330
17
100
AcDbEntity
  8
0
100
AcDbDimension
280
0
  3
EZDXF
 10
20.0
 20
-22.0
 30
0.0
 70
32
 71
5
  1
<>
100
AcDbAlignedDimension
 13
25.0
 23
-20.0
 33
0.0
 14
21.98
 24
-20.0
 34
0.0
 50
0.0
100
AcDbRotatedDimension
  0
DIMENSION
  5
129
330
17
100
AcDbEntity
  8
0
100
AcDbDimension
280
0
  2
*D10
  3
EZDXF
 10
20.0
 20
-20.0
 30
0.0
 11
19.4
 21
-18.0
 31
0.0
 70
32
 71
5
  1
<>
100
AcDbAlignedDimension
 13
21.98
 23
-20.0
 33
0.0
 14
21.98
 24
-16.0
 34
0.0
 50
90.0
100
AcDbRotatedDimension
  0
HATCH
  5
138
330
17
100
AcDbEntity
  8
0
 62
7
100
AcDbHatch
 10
0.0
 20
0.0
 30
0.0
210
0.0
220
0.0
230
1.0
  2
SOLID
 70
1
 71
0
 91
1
 92
1
 93
1
 72
2
 10
22.24
 20
-16.259999999999998
 40
0.06
 50
0
 51
360
 73
1
 97
0
 75
1
 76
1
 98
0
  0
DIMENSION
  5
139
330
17
100
AcDbEntity
  8
dimensions
100
AcDbDimension
280
0
  2
*D11
  3
EZ_RADIUS
 10
22.197573593128805
 20
-16.217573593128805
 30
0.0
 11
22.56526911934581
 21
-16.58526911934581
 31
0.0
 70
35
 71
5
  1
<>
100
AcDbDiametricDimension
 15
22.282426406871192
 25
-16.30242640687119
 35
0.0
1001
ACAD
1000
DSTYLE
1002
{
1070
77
1070
0
1070
41
1040
0.2
1070
42
1040
5000.0
1070
74
1070
1
1070
144
1040
100.0
1002
}
  0
HATCH
  5
144
330
17
100
AcDbEntity
  8
0
 62
7
100
AcDbHatch
 10
0.0
 20
0.0
 30
0.0
210
0.0
220
0.0
230
1.0
  2
SOLID
 70
1
 71
0
 91
1
 92
1
 93
1
 72
2
 10
23.10666666666667
 20
-16.259999999999998
 40
0.06
 50
0
 51
360
 73
1
 97
0
 75
1
 76
1
 98
0
  0
DIMENSION
  5
145
330
17
100
AcDbEntity
  8
dimensions
100
AcDbDimension
280
0
  2
*D12
  3
EZ_RADIUS
 10
23.064240259795476
 20
-16.217573593128805
 30
0.0
 11
23.43193578601248
 21
-16.58526911934581
 31
0.0
 70
35
 71
5
  1
<>
100
AcDbDiametricDimension
 15
23.149093073537863
 25
-16.30242640687119
 35
0.0
1001
ACAD
1000
DSTYLE
1002
{
1070
77
1070
0
1070
41
1040
0.2
1070
42
1040
5000.0
1070
74
1070
1
1070
144
1040
100.0
1002
}
  0
HATCH
  5
150
330
17
100
AcDbEntity
  8
0
 62
7
100
AcDbHatch
 10
0.0
 20
0.0
 30
0.0
210
0.0
220
0.0
230
1.0
  2
SOLID
 70
1
 71
0
 91
1
 92
1
 93
1
 72
2
 10
23.87333333333333
 20
-16.259999999999998
 40
0.06
 50
0
 51
360
 73
1
 97
0
 75
1
 76
1
 98
0
  0
DIMENSION
  5
151
330
17
100
AcDbEntity
  8
dimensions
100
AcDbDimension
280
0
  2
*D13
  3
EZ_RADIUS
 10
23.830906926462138
 20
-16.217573593128805
 30
0.0
 11
24.198602452679143
 21
-16.58526911934581
 31
0.0
 70
35
 71
5
  1
<>
100
AcDbDiametricDimension
 15
23.915759740204525
 25
-16.30242640687119
 35
0.0
1001
ACAD
1000
DSTYLE
1002
{
1070
77
1070
0
1070
41
1040
0.2
1070
42
1040
5000.0
1070
74
1070
1
1070
144
1040
100.0
1002
}
  0
HATCH
  5
15C
330
17
100
AcDbEntity
  8
0
 62
7
100
AcDbHatch
 10
0.0
 20
0.0
 30
0.0
210
0.0
220
0.0
230
1.0
  2
SOLID
 70
1
 71
0
 91
1
 92
1
 93
1
 72
2
 10
24.740000000000002
 20
-16.259999999999998
 40
0.06
 50
0
 51
360
 73
1
 97
0
 75
1
 76
1
 98
0
  0
DIMENSION
  5
15D
330
17
100
AcDbEntity
  8
dimensions
100
AcDbDimension
280
0
  2
*D14
  3
EZ_RADIUS
 10
24.69757359312881
 20
-16.217573593128805
 30
0.0
 11
25.065269119345814
 21
-16.58526911934581
 31
0.0
 70
35
 71
5
  1
<>
100
AcDbDiametricDimension
 15
24.782426406871195
 25
-16.30242640687119
 35
0.0
1001
ACAD
1000
DSTYLE
1002
{
1070
77
1070
0
1070
41
1040
0.2
1070
42
1040
5000.0
1070
74
1070
1
1070
144
1040
100.0
1002
}
  0
HATCH
  5
168
330
17
100
AcDbEntity
  8
0
 62
7
100
AcDbHatch
 10
0.0
 20
0.0
 30
0.0
210
0.0
220
0.0
230
1.0
  2
SOLID
 70
1
 71
0
 91
1
 92
1
 93
1
 72
2
 10
22.259999999999998
 20
-19.720000000000002
 40
0.08
 50
0
 51
360
 73
1
 97
0
 75
1
 76
1
 98
0
  0
DIMENSION
  5
169
330
17
100
AcDbEntity
  8
dimensions
100
AcDbDimension
280
0
  2
*D15
  3
EZ_RADIUS
 10
22.203431457505076
 20
-19.66343145750508
 30
0.0
 11
22.59941125496954
 21
-20.059411254969543
 31
0.0
 70
35
 71
5
  1
<>
100
AcDbDiametricDimension
 15
22.31656854249492
 25
-19.776568542494925
 35
0.0
1001
ACAD
1000
DSTYLE
1002
{
1070
77
1070
0
1070
41
1040
0.2
1070
42
1040
5000.0
1070
74
1070
1
1070
144
1040
100.0
1002
}
  0
HATCH
  5
174
330
17
100
AcDbEntity
  8
0
 62
7
100
AcDbHatch
 10
0.0
 20
0.0
 30
0.0
210
0.0
220
0.0
230
1.0
  2
SOLID
 70
1
 71
0
 91
1
 92
1
 93
1
 72
2
 10
23.49
 20
-19.720000000000002
 40
0.08
 50
0
 51
360
 73
1
 97
0
 75
1
 76
1
 98
0
  0
DIMENSION
  5
175
330
17
100
AcDbEntity
  8
dimensions
100
AcDbDimension
280
0
  2
*D16
  3
EZ_RADIUS
 10
23.433431457505076
 20
-19.66343145750508
 30
0.0
 11
23.82941125496954
 21
-20.059411254969543
 31
0.0
 70
35
 71
5
  1
<>
100
AcDbDiametricDimension
 15
23.54656854249492
 25
-19.776568542494925
 35
0.0
1001
ACAD
1000
DSTYLE
1002
{
1070
77
1070
0
1070
41
1040
0.2
1070
42
1040
5000.0
1070
74
1070
1
1070
144
1040
100.0
1002
}
  0
HATCH
  5
180
330
17
100
AcDbEntity
  8
0
 62
7
100
AcDbHatch
 10
0.0
 20
0.0
 30
0.0
210
0.0
220
0.0
230
1.0
  2
SOLID
 70
1
 71
0
 91
1
 92
1
 93
1
 72
2
 10
24.720000000000002
 20
-19.720000000000002
 40
0.08
 50
0
 51
360
 73
1
 97
0
 75
1
 76
1
 98
0
  0
DIMENSION
  5
181
330
17
100
AcDbEntity
  8
dimensions
100
AcDbDimension
280
0
  2
*D17
  3
EZ_RADIUS
 10
24.66343145750508
 20
-19.66343145750508
 30
0.0
 11
25.059411254969543
 21
-20.059411254969543
 31
0.0
 70
35
 71
5
  1
<>
100
AcDbDiametricDimension
 15
24.776568542494925
 25
-19.776568542494925
 35
0.0
1001
ACAD
1000
DSTYLE
1002
{
1070
77
1070
0
1070
41
1040
0.2
1070
42
1040
5000.0
1070
74
1070
1
1070
144
1040
100.0
1002
}
  0
TEXT
  5
18C
330
17
100
AcDbEntity
  8
0
 62
7
100
AcDbText
 10
50.0
 20
-28.0
 30
0.0
 40
1.0
  1
SECTION C-C
  7
OpenSans
100
AcDbText
  0
LINE
  5
18D
330
17
100
AcDbEntity
  8
0
100
AcDbLine
 10
50.0
 20
-20.0
 30
0.0
 11
46.98
 21
-20.0
 31
0.0
  0
LINE
  5
18E
330
17
100
AcDbEntity
  8
0
100
AcDbLine
 10
46.98
 20
-20.0
 30
0.0
 11
46.98
 21
-16.0
 31
0.0
  0
LINE
  5
18F
330
17
100
AcDbEntity
  8
0
100
AcDbLine
 10
46.98
 20
-16.0
 30
0.0
 11
50.0
 21
-16.0
 31
0.0
  0
LINE
  5
190
330
17
100
AcDbEntity
  8
0
100
AcDbLine
 10
50.0
 20
-16.0
 30
0.0
 11
50.0
 21
-20.0
 31
0.0
  0
LINE
  5
191
330
17
100
AcDbEntity
  8
0
100
AcDbLine
 10
49.8
 20
-19.8
 30
0.0
 11
47.18
 21
-19.8
 31
0.0
  0
LINE
  5
192
330
17
100
AcDbEntity
  8
0
100
AcDbLine
 10
47.18
 20
-19.8
 30
0.0
 11
47.18
 21
-16.2
 31
0.0
  0
LINE
  5
193
330
17
100
AcDbEntity
  8
0
100
AcDbLine
 10
47.18
 20
-16.2
 30
0.0
 11
49.8
 21
-16.2
 31
0.0
  0
LINE
  5
194
330
17
100
AcDbEntity
  8
0
100
AcDbLine
 10
49.8
 20
-16.2
 30
0.0
 11
49.8
 21
-19.8
 31
0.0
  0
DIMENSION
  5
195
330
17
100
AcDbEntity
  8
0
100
AcDbDimension
280
0
  3
EZDXF
 10
45.0
 20
-22.0
 30
0.0
 70
32
 71
5
  1
<>
100
AcDbAlignedDimension
 13
50.0
 23
-20.0
 33
0.0
 14
46.98
 24
-20.0
 34
0.0
 50
0.0
100
AcDbRotatedDimension
  0
DIMENSION
  5
196
330
17
100
AcDbEntity
  8
0
100
AcDbDimension
280
0
  2
*D18
  3
EZDXF
 10
45.0
 20
-20.0
 30
0.0
 11
44.4
 21
-18.0
 31
0.0
 70
32
 71
5
  1
<>
100
AcDbAlignedDimension
 13
46.98
 23
-20.0
 33
0.0
 14
46.98
 24
-16.0
 34
0.0
 50
90.0
100
AcDbRotatedDimension
  0
HATCH
  5
1A5
330
17
100
AcDbEntity
  8
0
 62
7
100
AcDbHatch
 10
0.0
 20
0.0
 30
0.0
210
0.0
220
0.0
230
1.0
  2
SOLID
 70
1
 71
0
 91
1
 92
1
 93
1
 72
2
 10
47.24
 20
-16.259999999999998
 40
0.06
 50
0
 51
360
 73
1
 97
0
 75
1
 76
1
 98
0
  0
DIMENSION
  5
1A6
330
17
100
AcDbEntity
  8
dimensions
100
AcDbDimension
280
0
  2
*D19
  3
EZ_RADIUS
 10
47.19757359312881
 20
-16.217573593128805
 30
0.0
 11
47.565269119345814
 21
-16.58526911934581
 31
0.0
 70
35
 71
5
  1
<>
100
AcDbDiametricDimension
 15
47.282426406871195
 25
-16.30242640687119
 35
0.0
1001
ACAD
1000
DSTYLE
1002
{
1070
77
1070
0
1070
41
1040
0.2
1070
42
1040
5000.0
1070
74
1070
1
1070
144
1040
100.0
1002
}
  0
HATCH
  5
1B1
330
17
100
AcDbEntity
  8
0
 62
7
100
AcDbHatch
 10
0.0
 20
0.0
 30
0.0
210
0.0
220
0.0
230
1.0
  2
SOLID
 70
1
 71
0
 91
1
 92
1
 93
1
 72
2
 10
48.04666666666667
 20
-16.259999999999998
 40
0.06
 50
0
 51
360
 73
1
 97
0
 75
1
 76
1
 98
0
  0
DIMENSION
  5
1B2
330
17
100
AcDbEntity
  8
dimensions
100
AcDbDimension
280
0
  2
*D20
  3
EZ_RADIUS
 10
48.00424025979547
 20
-16.217573593128805
 30
0.0
 11
48.37193578601248
 21
-16.58526911934581
 31
0.0
 70
35
 71
5
  1
<>
100
AcDbDiametricDimension
 15
48.08909307353786
 25
-16.30242640687119
 35
0.0
1001
ACAD
1000
DSTYLE
1002
{
1070
77
1070
0
1070
41
1040
0.2
1070
42
1040
5000.0
1070
74
1070
1
1070
144
1040
100.0
1002
}
  0
HATCH
  5
1BD
330
17
100
AcDbEntity
  8
0
 62
7
100
AcDbHatch
 10
0.0
 20
0.0
 30
0.0
210
0.0
220
0.0
230
1.0
  2
SOLID
 70
1
 71
0
 91
1
 92
1
 93
1
 72
2
 10
48.93333333333333
 20
-16.259999999999998
 40
0.06
 50
0
 51
360
 73
1
 97
0
 75
1
 76
1
 98
0
  0
DIMENSION
  5
1BE
330
17
100
AcDbEntity
  8
dimensions
100
AcDbDimension
280
0
  2
*D21
  3
EZ_RADIUS
 10
48.89090692646214
 20
-16.217573593128805
 30
0.0
 11
49.25860245267914
 21
-16.58526911934581
 31
0.0
 70
35
 71
5
  1
<>
100
AcDbDiametricDimension
 15
48.97575974020452
 25
-16.30242640687119
 35
0.0
1001
ACAD
1000
DSTYLE
1002
{
1070
77
1070
0
1070
41
1040
0.2
1070
42
1040
5000.0
1070
74
1070
1
1070
144
1040
100.0
1002
}
  0
HATCH
  5
1C9
330
17
100
AcDbEntity
  8
0
 62
7
100
AcDbHatch
 10
0.0
 20
0.0
 30
0.0
210
0.0
220
0.0
230
1.0
  2
SOLID
 70
1
 71
0
 91
1
 92
1
 93
1
 72
2
 10
49.739999999999995
 20
-16.259999999999998
 40
0.06
 50
0
 51
360
 73
1
 97
0
 75
1
 76
1
 98
0
  0
DIMENSION
  5
1CA
330
17
100
AcDbEntity
  8
dimensions
100
AcDbDimension
280
0
  2
*D22
  3
EZ_RADIUS
 10
49.6975735931288
 20
-16.217573593128805
 30
0.0
 11
50.06526911934581
 21
-16.58526911934581
 31
0.0
 70
35
 71
5
  1
<>
100
AcDbDiametricDimension
 15
49.78242640687119
 25
-16.30242640687119
 35
0.0
1001
ACAD
1000
DSTYLE
1002
{
1070
77
1070
0
1070
41
1040
0.2
1070
42
1040
5000.0
1070
74
1070
1
1070
144
1040
100.0
1002
}
  0
HATCH
  5
1D5
330
17
100
AcDbEntity
  8
0
 62
7
100
AcDbHatch
 10
0.0
 20
0.0
 30
0.0
210
0.0
220
0.0
230
1.0
  2
SOLID
 70
1
 71
0
 91
1
 92
1
 93
1
 72
2
 10
47.26
 20
-19.720000000000002
 40
0.08
 50
0
 51
360
 73
1
 97
0
 75
1
 76
1
 98
0
  0
DIMENSION
  5
1D6
330
17
100
AcDbEntity
  8
dimensions
100
AcDbDimension
280
0
  2
*D23
  3
EZ_RADIUS
 10
47.203431457505076
 20
-19.66343145750508
 30
0.0
 11
47.59941125496954
 21
-20.059411254969543
 31
0.0
 70
35
 71
5
  1
<>
100
AcDbDiametricDimension
 15
47.31656854249492
 25
-19.776568542494925
 35
0.0
1001
ACAD
1000
DSTYLE
1002
{
1070
77
1070
0
1070
41
1040
0.2
1070
42
1040
5000.0
1070
74
1070
1
1070
144
1040
100.0
1002
}
  0
HATCH
  5
1E1
330
17
100
AcDbEntity
  8
0
 62
7
100
AcDbHatch
 10
0.0
 20
0.0
 30
0.0
210
0.0
220
0.0
230
1.0
  2
SOLID
 70
1
 71
0
 91
1
 92
1
 93
1
 72
2
 10
48.489999999999995
 20
-19.720000000000002
 40
0.08
 50
0
 51
360
 73
1
 97
0
 75
1
 76
1
 98
0
  0
DIMENSION
  5
1E2
330
17
100
AcDbEntity
  8
dimensions
100
AcDbDimension
280
0
  2
*D24
  3
EZ_RADIUS
 10
48.43343145750507
 20
-19.66343145750508
 30
0.0
 11
48.829411254969536
 21
-20.059411254969543
 31
0.0
 70
35
 71
5
  1
<>
100
AcDbDiametricDimension
 15
48.54656854249492
 25
-19.776568542494925
 35
0.0
1001
ACAD
1000
DSTYLE
1002
{
1070
77
1070
0
1070
41
1040
0.2
1070
42
1040
5000.0
1070
74
1070
1
1070
144
1040
100.0
1002
}
  0
HATCH
  5
1ED
330
17
100
AcDbEntity
  8
0
 62
7
100
AcDbHatch
 10
0.0
 20
0.0
 30
0.0
210
0.0
220
0.0
230
1.0
  2
SOLID
 70
1
 71
0
 91
1
 92
1
 93
1
 72
2
 10
49.72
 20
-19.720000000000002
 40
0.08
 50
0
 51
360
 73
1
 97
0
 75
1
 76
1
 98
0
  0
DIMENSION
  5
1EE
330
17
100
AcDbEntity
  8
dimensions
100
AcDbDimension
280
0
  2
*D25
  3
EZ_RADIUS
 10
49.66343145750508
 20
-19.66343145750508
 30
0.0
 11
50.05941125496954
 21
-20.059411254969543
 31
0.0
 70
35
 71
5
  1
<>
100
AcDbDiametricDimension
 15
49.77656854249492
 25
-19.776568542494925
 35
0.0
1001
ACAD
1000
DSTYLE
1002
{
1070
77
1070
0
1070
41
1040
0.2
1070
42
1040
5000.0
1070
74
1070
1
1070
144
1040
100.0
1002
}
  0
ENDSEC
  0
SECTION
  2
OBJECTS
  0
DICTIONARY
  5
A
330
0
100
AcDbDictionary
280
0
281
1
  3
ACAD_COLOR
350
B
  3
ACAD_GROUP
350
C
  3
ACAD_LAYOUT
350
D
  3
ACAD_MATERIAL
350
E
  3
ACAD_MLEADERSTYLE
350
F
  3
ACAD_MLINESTYLE
350
10
  3
ACAD_PLOTSETTINGS
350
11
  3
ACAD_PLOTSTYLENAME
350
12
  3
ACAD_SCALELIST
350
14
  3
ACAD_TABLESTYLE
350
15
  3
ACAD_VISUALSTYLE
350
16
  3
EZDXF_META
350
2D
  0
DICTIONARY
  5
B
330
A
100
AcDbDictionary
280
0
281
1
  0
DICTIONARY
  5
C
330
A
100
AcDbDictionary
280
0
281
1
  0
DICTIONARY
  5
D
330
A
100
AcDbDictionary
280
0
281
1
  3
Model
350
1A
  3
Layout1
350
1E
  0
DICTIONARY
  5
E
330
A
100
AcDbDictionary
280
0
281
1
  3
ByBlock
350
1F
  3
ByLayer
350
20
  3
Global
350
21
  0
DICTIONARY
  5
F
330
A
100
AcDbDictionary
280
0
281
1
  3
Standard
350
2C
  0
DICTIONARY
  5
10
330
A
100
AcDbDictionary
280
0
281
1
  3
Standard
350
22
  0
DICTIONARY
  5
11
330
A
100
AcDbDictionary
280
0
281
1
  0
ACDBDICTIONARYWDFLT
  5
12
330
A
100
AcDbDictionary
280
0
281
1
  3
Normal
350
13
100
AcDbDictionaryWithDefault
340
13
  0
ACDBPLACEHOLDER
  5
13
330
12
  0
DICTIONARY
  5
14
330
A
100
AcDbDictionary
280
0
281
1
  0
DICTIONARY
  5
15
330
A
100
AcDbDictionary
280
0
281
1
  0
DICTIONARY
  5
16
330
A
100
AcDbDictionary
280
0
281
1
  3
2dWireframe
350
5A
  3
Basic
350
5B
  3
Brighten
350
5C
  3
ColorChange
350
5D
  3
Conceptual
350
5E
  3
Dim
350
5F
  3
EdgeColorOff
350
60
  3
Facepattern
350
61
  3
Flat
350
62
  3
FlatWithEdges
350
63
  3
Gouraud
350
64
  3
GouraudWithEdges
350
65
  3
Hidden
350
66
  3
JitterOff
350
67
  3
Linepattern
350
68
  3
Modeling
350
69
  3
OverhangOff
350
6A
  3
Realistic
350
6B
  3
Shaded
350
6C
  3
Shaded with edges
350
6D
  3
Shades of Gray
350
6E
  3
Sketchy
350
6F
  3
Thicken
350
70
  3
Wireframe
350
71
  3
X-Ray
350
72
  0
LAYOUT
  5
1A
330
D
100
AcDbPlotSettings
  1

  2
Adobe PDF
  4
A3
  6

 40
7.5
 41
20.0
 42
7.5
 43
20.0
 44
420.0
 45
297.0
 46
0.0
 47
0.0
 48
0.0
 49
0.0
140
0.0
141
0.0
142
1.0
143
1.0
 70
1024
 72
1
 73
0
 74
5
  7

 75
16
 76
0
 77
2
 78
300
147
1.0
148
0.0
149
0.0
100
AcDbLayout
  1
Model
 70
1
 71
0
 10
0.0
 20
0.0
 11
420.0
 21
297.0
 12
0.0
 22
0.0
 32
0.0
 14
1e+20
 24
1e+20
 34
1e+20
 15
-1e+20
 25
-1e+20
 35
-1e+20
146
0.0
 13
0.0
 23
0.0
 33
0.0
 16
1.0
 26
0.0
 36
0.0
 17
0.0
 27
1.0
 37
0.0
 76
1
330
17
  0
LAYOUT
  5
1E
330
D
100
AcDbPlotSettings
  1

  2
Adobe PDF
  4
A3
  6

 40
7.5
 41
20.0
 42
7.5
 43
20.0
 44
420.0
 45
297.0
 46
0.0
 47
0.0
 48
0.0
 49
0.0
140
0.0
141
0.0
142
1.0
143
1.0
 70
0
 72
1
 73
0
 74
5
  7

 75
16
 76
0
 77
2
 78
300
147
1.0
148
0.0
149
0.0
100
AcDbLayout
  1
Layout1
 70
1
 71
1
 10
0.0
 20
0.0
 11
420.0
 21
297.0
 12
0.0
 22
0.0
 32
0.0
 14
1e+20
 24
1e+20
 34
1e+20
 15
-1e+20
 25
-1e+20
 35
-1e+20
146
0.0
 13
0.0
 23
0.0
 33
0.0
 16
1.0
 26
0.0
 36
0.0
 17
0.0
 27
1.0
 37
0.0
 76
1
330
1B
  0
MATERIAL
  5
1F
102
{ACAD_REACTORS
330
E
102
}
330
E
100
AcDbMaterial
  1
ByBlock
  2

 70
0
 40
1.0
 71
1
 41
1.0
 91
-1023410177
 42
1.0
 72
1
  3

 73
1
 74
1
 75
1
 44
0.5
 73
0
 45
1.0
 46
1.0
 77
1
  4

 78
1
 79
1
170
1
 48
1.0
171
1
  6

172
1
173
1
174
1
140
1.0
141
1.0
175
1
  7

176
1
177
1
178
1
143
1.0
179
1
  8

270
1
271
1
272
1
145
1.0
146
1.0
273
1
  9

274
1
275
1
276
1
 42
1.0
 72
1
  3

 73
1
 74
1
 75
1
 94
63
  0
MATERIAL
  5
20
102
{ACAD_REACTORS
330
E
102
}
330
E
100
AcDbMaterial
  1
ByLayer
  2

 70
0
 40
1.0
 71
1
 41
1.0
 91
-1023410177
 42
1.0
 72
1
  3

 73
1
 74
1
 75
1
 44
0.5
 73
0
 45
1.0
 46
1.0
 77
1
  4

 78
1
 79
1
170
1
 48
1.0
171
1
  6

172
1
173
1
174
1
140
1.0
141
1.0
175
1
  7

176
1
177
1
178
1
143
1.0
179
1
  8

270
1
271
1
272
1
145
1.0
146
1.0
273
1
  9

274
1
275
1
276
1
 42
1.0
 72
1
  3

 73
1
 74
1
 75
1
 94
63
  0
MATERIAL
  5
21
102
{ACAD_REACTORS
330
E
102
}
330
E
100
AcDbMaterial
  1
Global
  2

 70
0
 40
1.0
 71
1
 41
1.0
 91
-1023410177
 42
1.0
 72
1
  3

 73
1
 74
1
 75
1
 44
0.5
 73
0
 45
1.0
 46
1.0
 77
1
  4

 78
1
 79
1
170
1
 48
1.0
171
1
  6

172
1
173
1
174
1
140
1.0
141
1.0
175
1
  7

176
1
177
1
178
1
143
1.0
179
1
  8

270
1
271
1
272
1
145
1.0
146
1.0
273
1
  9

274
1
275
1
276
1
 42
1.0
 72
1
  3

 73
1
 74
1
 75
1
 94
63
  0
MLINESTYLE
  5
22
102
{ACAD_REACTORS
330
10
102
}
330
10
100
AcDbMlineStyle
  2
Standard
 70
0
  3

 62
256
 51
90.0
 52
90.0
 71
2
 49
0.5
 62
256
  6
BYLAYER
 49
-0.5
 62
256
  6
BYLAYER
  0
MLEADERSTYLE
  5
2C
102
{ACAD_REACTORS
330
F
102
}
330
F
100
AcDbMLeaderStyle
179
2
170
2
171
1
172
0
 90
2
 40
0.0
 41
0.0
173
1
 91
-1056964608
 92
-2
290
1
 42
2.0
291
1
 43
8.0
  3
Standard
 44
4.0
300

342
29
174
1
175
1
176
0
178
1
 93
-1056964608
 45
4.0
292
0
297
0
 46
4.0
 94
-1056964608
 47
1.0
 49
1.0
140
1.0
294
1
141
0.0
177
0
142
1.0
295
0
296
0
143
3.75
271
0
272
9
273
9
  0
DICTIONARY
  5
2D
330
A
100
AcDbDictionary
281
1
  3
CREATED_BY_EZDXF
350
2E
  3
WRITTEN_BY_EZDXF
350
209
  0
DICTIONARYVAR
  5
2E
330
2D
100
DictionaryVariables
280
0
  1
1.1.4 @ 2024-08-17T16:38:52.486278+00:00
  0
VISUALSTYLE
  5
5A
102
{ACAD_REACTORS
330
16
102
}
330
16
100
AcDbVisualStyle
  2
2dWireframe
 70
4
177
3
291
0
 70
58
 90
2
176
1
 90
2
176
1
 90
0
176
1
 90
0
176
1
 40
0.6
176
1
 40
30.0
176
1
 62
7
420
16777215
176
1
 90
1
176
1
 90
4
176
1
 62
7
176
1
 62
257
176
1
 90
1
176
1
 90
1
176
1
 40
1.0
176
1
 90
8
176
1
 62
7
176
1
 40
1.0
176
1
 90
1
176
1
 90
6
176
1
 90
2
176
1
 62
7
176
1
 90
5
176
1
 90
0
176
1
 90
0
176
1
290
0
176
1
 90
1
176
1
 40
0.0
176
1
 90
0
176
1
290
1
176
1
290
1
176
1
290
0
176
1
290
0
176
1
290
0
176
1
290
0
176
1
290
0
176
1
290
0
176
1
290
0
176
1
 90
50
176
1
 40
0.0
176
1
 40
1.0
176
1
 90
0
176
1
 62
18
420
0
176
1
 90
50
176
1
 90
3
176
1
 62
5
420
255
176
1
290
0
176
1
 90
50
176
1
 90
50
176
1
 90
50
176
1
290
0
176
1
 90
50
176
1
 62
256
176
0
 40
1.0
176
0
 90
2
176
1
  1
strokes_ogs.tif
176
1
290
0
176
1
 40
1.0
176
1
 40
1.0
176
1
  0
VISUALSTYLE
  5
5B
102
{ACAD_REACTORS
330
16
102
}
330
16
100
AcDbVisualStyle
  2
Basic
 70
7
177
3
291
1
 70
58
 90
2
176
1
 90
2
176
1
 90
0
176
1
 90
1
176
1
 40
0.6
176
1
 40
30.0
176
1
 62
7
420
16777215
176
1
 90
1
176
1
 90
4
176
1
 62
7
176
1
 62
257
176
1
 90
1
176
1
 90
1
176
1
 40
1.0
176
1
 90
8
176
1
 62
7
176
1
 40
1.0
176
1
 90
1
176
1
 90
6
176
1
 90
2
176
1
 62
7
176
1
 90
5
176
1
 90
0
176
1
 90
0
176
1
290
0
176
1
 90
1
176
1
 40
0.0
176
1
 90
0
176
1
290
0
176
1
290
1
176
1
290
1
176
1
290
0
176
1
290
0
176
1
290
0
176
1
290
0
176
1
290
0
176
1
290
0
176
1
 90
50
176
1
 40
0.0
176
1
 40
1.0
176
1
 90
0
176
1
 62
18
420
0
176
1
 90
50
176
1
 90
3
176
1
 62
5
420
255
176
1
290
0
176
1
 90
50
176
1
 90
50
176
1
 90
50
176
1
290
0
176
1
 90
50
176
1
 62
256
176
0
 40
1.0
176
0
 90
2
176
1
  1
strokes_ogs.tif
176
1
290
0
176
1
 40
1.0
176
1
 40
1.0
176
1
  0
VISUALSTYLE
  5
5C
102
{ACAD_REACTORS
330
16
102
}
330
16
100
AcDbVisualStyle
  2
Brighten
 70
12
177
3
291
1
 70
58
 90
2
176
1
 90
2
176
1
 90
0
176
1
 90
2
176
1
 40
0.6
176
1
 40
30.0
176
1
 62
7
420
16777215
176
1
 90
1
176
1
 90
4
176
1
 62
7
176
1
 62
257
176
1
 90
1
176
1
 90
1
176
1
 40
1.0
176
1
 90
8
176
1
 62
7
176
1
 40
1.0
176
1
 90
1
176
1
 90
6
176
1
 90
2
176
1
 62
7
176
1
 90
5
176
1
 90
0
176
1
 90
0
176
1
290
0
176
1
 90
1
176
1
 40
0.0
176
1
 90
0
176
1
290
0
176
1
290
1
176
1
290
1
176
1
290
0
176
1
290
0
176
1
290
0
176
1
290
0
176
1
290
0
176
1
290
0
176
1
 90
50
176
1
 40
0.0
176
1
 40
1.0
176
1
 90
0
176
1
 62
18
420
0
176
1
 90
50
176
1
 90
3
176
1
 62
5
420
255
176
1
290
0
176
1
 90
50
176
1
 90
50
176
1
 90
50
176
1
290
0
176
1
 90
50
176
1
 62
256
176
0
 40
1.0
176
0
 90
2
176
1
  1
strokes_ogs.tif
176
1
290
0
176
1
 40
1.0
176
1
 40
1.0
176
1
  0
VISUALSTYLE
  5
5D
102
{ACAD_REACTORS
330
16
102
}
330
16
100
AcDbVisualStyle
  2
ColorChange
 70
16
177
3
291
1
 70
58
 90
2
176
1
 90
2
176
1
 90
0
176
1
 90
2
176
1
 40
0.6
176
1
 40
30.0
176
1
 62
7
420
16777215
176
1
 90
1
176
1
 90
4
176
1
 62
7
176
1
 62
257
176
1
 90
1
176
1
 90
1
176
1
 40
1.0
176
1
 90
8
176
1
 62
7
176
1
 40
1.0
176
1
 90
1
176
1
 90
6
176
1
 90
2
176
1
 62
7
176
1
 90
5
176
1
 90
0
176
1
 90
0
176
1
290
0
176
1
 90
1
176
1
 40
0.0
176
1
 90
0
176
1
290
0
176
1
290
1
176
1
290
1
176
1
290
0
176
1
290
0
176
1
290
0
176
1
290
0
176
1
290
0
176
1
290
0
176
1
 90
50
176
1
 40
0.0
176
1
 40
1.0
176
1
 90
0
176
1
 62
18
420
0
176
1
 90
50
176
1
 90
3
176
1
 62
5
420
255
176
1
290
0
176
1
 90
50
176
1
 90
50
176
1
 90
50
176
1
290
0
176
1
 90
50
176
1
 62
256
176
0
 40
1.0
176
0
 90
2
176
1
  1
strokes_ogs.tif
176
1
290
0
176
1
 40
1.0
176
1
 40
1.0
176
1
  0
VISUALSTYLE
  5
5E
102
{ACAD_REACTORS
330
16
102
}
330
16
100
AcDbVisualStyle
  2
Conceptual
 70
9
177
3
291
0
 70
58
 90
2
176
1
 90
2
176
1
 90
0
176
1
 90
3
176
1
 40
0.6
176
1
 40
30.0
176
1
 62
7
420
16777215
176
1
 90
1
176
1
 90
4
176
1
 62
7
176
1
 62
257
176
1
 90
1
176
1
 90
1
176
1
 40
1.0
176
1
 90
8
176
1
 62
7
176
1
 40
1.0
176
1
 90
1
176
1
 90
6
176
1
 90
2
176
1
 62
7
176
1
 90
5
176
1
 90
0
176
1
 90
0
176
1
290
0
176
1
 90
1
176
1
 40
0.0
176
1
 90
0
176
1
290
0
176
1
290
1
176
1
290
1
176
1
290
0
176
1
290
0
176
1
290
0
176
1
290
0
176
1
290
0
176
1
290
0
176
1
 90
50
176
1
 40
0.0
176
1
 40
1.0
176
1
 90
0
176
1
 62
18
420
0
176
1
 90
50
176
1
 90
3
176
1
 62
5
420
255
176
1
290
0
176
1
 90
50
176
1
 90
50
176
1
 90
50
176
1
290
0
176
1
 90
50
176
1
 62
256
176
0
 40
1.0
176
0
 90
2
176
1
  1
strokes_ogs.tif
176
1
290
0
176
1
 40
1.0
176
1
 40
1.0
176
1
  0
VISUALSTYLE
  5
5F
102
{ACAD_REACTORS
330
16
102
}
330
16
100
AcDbVisualStyle
  2
Dim
 70
11
177
3
291
1
 70
58
 90
2
176
1
 90
2
176
1
 90
0
176
1
 90
2
176
1
 40
0.6
176
1
 40
30.0
176
1
 62
7
420
16777215
176
1
 90
1
176
1
 90
4
176
1
 62
7
176
1
 62
257
176
1
 90
1
176
1
 90
1
176
1
 40
1.0
176
1
 90
8
176
1
 62
7
176
1
 40
1.0
176
1
 90
1
176
1
 90
6
176
1
 90
2
176
1
 62
7
176
1
 90
5
176
1
 90
0
176
1
 90
0
176
1
290
0
176
1
 90
1
176
1
 40
0.0
176
1
 90
0
176
1
290
0
176
1
290
1
176
1
290
1
176
1
290
0
176
1
290
0
176
1
290
0
176
1
290
0
176
1
290
0
176
1
290
0
176
1
 90
50
176
1
 40
0.0
176
1
 40
1.0
176
1
 90
0
176
1
 62
18
420
0
176
1
 90
50
176
1
 90
3
176
1
 62
5
420
255
176
1
290
0
176
1
 90
50
176
1
 90
50
176
1
 90
50
176
1
290
0
176
1
 90
50
176
1
 62
256
176
0
 40
1.0
176
0
 90
2
176
1
  1
strokes_ogs.tif
176
1
290
0
176
1
 40
1.0
176
1
 40
1.0
176
1
  0
VISUALSTYLE
  5
60
102
{ACAD_REACTORS
330
16
102
}
330
16
100
AcDbVisualStyle
  2
EdgeColorOff
 70
22
177
3
291
1
 70
58
 90
2
176
1
 90
2
176
1
 90
0
176
1
 90
2
176
1
 40
0.6
176
1
 40
30.0
176
1
 62
7
420
16777215
176
1
 90
1
176
1
 90
4
176
1
 62
7
176
1
 62
257
176
1
 90
1
176
1
 90
1
176
1
 40
1.0
176
1
 90
8
176
1
 62
7
176
1
 40
1.0
176
1
 90
1
176
1
 90
6
176
1
 90
2
176
1
 62
7
176
1
 90
5
176
1
 90
0
176
1
 90
0
176
1
290
0
176
1
 90
1
176
1
 40
0.0
176
1
 90
0
176
1
290
0
176
1
290
1
176
1
290
1
176
1
290
0
176
1
290
0
176
1
290
0
176
1
290
0
176
1
290
0
176
1
290
0
176
1
 90
50
176
1
 40
0.0
176
1
 40
1.0
176
1
 90
0
176
1
 62
18
420
0
176
1
 90
50
176
1
 90
3
176
1
 62
5
420
255
176
1
290
0
176
1
 90
50
176
1
 90
50
176
1
 90
50
176
1
290
0
176
1
 90
50
176
1
 62
256
176
0
 40
1.0
176
0
 90
2
176
1
  1
strokes_ogs.tif
176
1
290
0
176
1
 40
1.0
176
1
 40
1.0
176
1
  0
VISUALSTYLE
  5
61
102
{ACAD_REACTORS
330
16
102
}
330
16
100
AcDbVisualStyle
  2
Facepattern
 70
15
177
3
291
1
 70
58
 90
2
176
1
 90
2
176
1
 90
0
176
1
 90
2
176
1
 40
0.6
176
1
 40
30.0
176
1
 62
7
420
16777215
176
1
 90
1
176
1
 90
4
176
1
 62
7
176
1
 62
257
176
1
 90
1
176
1
 90
1
176
1
 40
1.0
176
1
 90
8
176
1
 62
7
176
1
 40
1.0
176
1
 90
1
176
1
 90
6
176
1
 90
2
176
1
 62
7
176
1
 90
5
176
1
 90
0
176
1
 90
0
176
1
290
0
176
1
 90
1
176
1
 40
0.0
176
1
 90
0
176
1
290
0
176
1
290
1
176
1
290
1
176
1
290
0
176
1
290
0
176
1
290
0
176
1
290
0
176
1
290
0
176
1
290
0
176
1
 90
50
176
1
 40
0.0
176
1
 40
1.0
176
1
 90
0
176
1
 62
18
420
0
176
1
 90
50
176
1
 90
3
176
1
 62
5
420
255
176
1
290
0
176
1
 90
50
176
1
 90
50
176
1
 90
50
176
1
290
0
176
1
 90
50
176
1
 62
256
176
0
 40
1.0
176
0
 90
2
176
1
  1
strokes_ogs.tif
176
1
290
0
176
1
 40
1.0
176
1
 40
1.0
176
1
  0
VISUALSTYLE
  5
62
102
{ACAD_REACTORS
330
16
102
}
330
16
100
AcDbVisualStyle
  2
Flat
 70
0
177
3
291
1
 70
58
 90
2
176
1
 90
2
176
1
 90
0
176
1
 90
2
176
1
 40
0.6
176
1
 40
30.0
176
1
 62
7
420
16777215
176
1
 90
1
176
1
 90
4
176
1
 62
7
176
1
 62
257
176
1
 90
1
176
1
 90
1
176
1
 40
1.0
176
1
 90
8
176
1
 62
7
176
1
 40
1.0
176
1
 90
1
176
1
 90
6
176
1
 90
2
176
1
 62
7
176
1
 90
5
176
1
 90
0
176
1
 90
0
176
1
290
0
176
1
 90
1
176
1
 40
0.0
176
1
 90
0
176
1
290
0
176
1
290
1
176
1
290
1
176
1
290
0
176
1
290
0
176
1
290
0
176
1
290
0
176
1
290
0
176
1
290
0
176
1
 90
50
176
1
 40
0.0
176
1
 40
1.0
176
1
 90
0
176
1
 62
18
420
0
176
1
 90
50
176
1
 90
3
176
1
 62
5
420
255
176
1
290
0
176
1
 90
50
176
1
 90
50
176
1
 90
50
176
1
290
0
176
1
 90
50
176
1
 62
256
176
0
 40
1.0
176
0
 90
2
176
1
  1
strokes_ogs.tif
176
1
290
0
176
1
 40
1.0
176
1
 40
1.0
176
1
  0
VISUALSTYLE
  5
63
102
{ACAD_REACTORS
330
16
102
}
330
16
100
AcDbVisualStyle
  2
FlatWithEdges
 70
1
177
3
291
1
 70
58
 90
2
176
1
 90
2
176
1
 90
0
176
1
 90
2
176
1
 40
0.6
176
1
 40
30.0
176
1
 62
7
420
16777215
176
1
 90
1
176
1
 90
4
176
1
 62
7
176
1
 62
257
176
1
 90
1
176
1
 90
1
176
1
 40
1.0
176
1
 90
8
176
1
 62
7
176
1
 40
1.0
176
1
 90
1
176
1
 90
6
176
1
 90
2
176
1
 62
7
176
1
 90
5
176
1
 90
0
176
1
 90
0
176
1
290
0
176
1
 90
1
176
1
 40
0.0
176
1
 90
0
176
1
290
0
176
1
290
1
176
1
290
1
176
1
290
0
176
1
290
0
176
1
290
0
176
1
290
0
176
1
290
0
176
1
290
0
176
1
 90
50
176
1
 40
0.0
176
1
 40
1.0
176
1
 90
0
176
1
 62
18
420
0
176
1
 90
50
176
1
 90
3
176
1
 62
5
420
255
176
1
290
0
176
1
 90
50
176
1
 90
50
176
1
 90
50
176
1
290
0
176
1
 90
50
176
1
 62
256
176
0
 40
1.0
176
0
 90
2
176
1
  1
strokes_ogs.tif
176
1
290
0
176
1
 40
1.0
176
1
 40
1.0
176
1
  0
VISUALSTYLE
  5
64
102
{ACAD_REACTORS
330
16
102
}
330
16
100
AcDbVisualStyle
  2
Gouraud
 70
2
177
3
291
1
 70
58
 90
2
176
1
 90
2
176
1
 90
0
176
1
 90
2
176
1
 40
0.6
176
1
 40
30.0
176
1
 62
7
420
16777215
176
1
 90
1
176
1
 90
4
176
1
 62
7
176
1
 62
257
176
1
 90
1
176
1
 90
1
176
1
 40
1.0
176
1
 90
8
176
1
 62
7
176
1
 40
1.0
176
1
 90
1
176
1
 90
6
176
1
 90
2
176
1
 62
7
176
1
 90
5
176
1
 90
0
176
1
 90
0
176
1
290
0
176
1
 90
1
176
1
 40
0.0
176
1
 90
0
176
1
290
0
176
1
290
1
176
1
290
1
176
1
290
0
176
1
290
0
176
1
290
0
176
1
290
0
176
1
290
0
176
1
290
0
176
1
 90
50
176
1
 40
0.0
176
1
 40
1.0
176
1
 90
0
176
1
 62
18
420
0
176
1
 90
50
176
1
 90
3
176
1
 62
5
420
255
176
1
290
0
176
1
 90
50
176
1
 90
50
176
1
 90
50
176
1
290
0
176
1
 90
50
176
1
 62
256
176
0
 40
1.0
176
0
 90
2
176
1
  1
strokes_ogs.tif
176
1
290
0
176
1
 40
1.0
176
1
 40
1.0
176
1
  0
VISUALSTYLE
  5
65
102
{ACAD_REACTORS
330
16
102
}
330
16
100
AcDbVisualStyle
  2
GouraudWithEdges
 70
3
177
3
291
1
 70
58
 90
2
176
1
 90
2
176
1
 90
0
176
1
 90
2
176
1
 40
0.6
176
1
 40
30.0
176
1
 62
7
420
16777215
176
1
 90
1
176
1
 90
4
176
1
 62
7
176
1
 62
257
176
1
 90
1
176
1
 90
1
176
1
 40
1.0
176
1
 90
8
176
1
 62
7
176
1
 40
1.0
176
1
 90
1
176
1
 90
6
176
1
 90
2
176
1
 62
7
176
1
 90
5
176
1
 90
0
176
1
 90
0
176
1
290
0
176
1
 90
1
176
1
 40
0.0
176
1
 90
0
176
1
290
0
176
1
290
1
176
1
290
1
176
1
290
0
176
1
290
0
176
1
290
0
176
1
290
0
176
1
290
0
176
1
290
0
176
1
 90
50
176
1
 40
0.0
176
1
 40
1.0
176
1
 90
0
176
1
 62
18
420
0
176
1
 90
50
176
1
 90
3
176
1
 62
5
420
255
176
1
290
0
176
1
 90
50
176
1
 90
50
176
1
 90
50
176
1
290
0
176
1
 90
50
176
1
 62
256
176
0
 40
1.0
176
0
 90
2
176
1
  1
strokes_ogs.tif
176
1
290
0
176
1
 40
1.0
176
1
 40
1.0
176
1
  0
VISUALSTYLE
  5
66
102
{ACAD_REACTORS
330
16
102
}
330
16
100
AcDbVisualStyle
  2
Hidden
 70
6
177
3
291
0
 70
58
 90
2
176
1
 90
2
176
1
 90
0
176
1
 90
1
176
1
 40
0.6
176
1
 40
30.0
176
1
 62
7
420
16777215
176
1
 90
1
176
1
 90
4
176
1
 62
7
176
1
 62
257
176
1
 90
1
176
1
 90
1
176
1
 40
1.0
176
1
 90
8
176
1
 62
7
176
1
 40
1.0
176
1
 90
1
176
1
 90
6
176
1
 90
2
176
1
 62
7
176
1
 90
5
176
1
 90
0
176
1
 90
0
176
1
290
0
176
1
 90
1
176
1
 40
0.0
176
1
 90
0
176
1
290
0
176
1
290
1
176
1
290
1
176
1
290
0
176
1
290
0
176
1
290
0
176
1
290
0
176
1
290
0
176
1
290
0
176
1
 90
50
176
1
 40
0.0
176
1
 40
1.0
176
1
 90
0
176
1
 62
18
420
0
176
1
 90
50
176
1
 90
3
176
1
 62
5
420
255
176
1
290
0
176
1
 90
50
176
1
 90
50
176
1
 90
50
176
1
290
0
176
1
 90
50
176
1
 62
256
176
0
 40
1.0
176
0
 90
2
176
1
  1
strokes_ogs.tif
176
1
290
0
176
1
 40
1.0
176
1
 40
1.0
176
1
  0
VISUALSTYLE
  5
67
102
{ACAD_REACTORS
330
16
102
}
330
16
100
AcDbVisualStyle
  2
JitterOff
 70
20
177
3
291
1
 70
58
 90
2
176
1
 90
2
176
1
 90
0
176
1
 90
2
176
1
 40
0.6
176
1
 40
30.0
176
1
 62
7
420
16777215
176
1
 90
1
176
1
 90
4
176
1
 62
7
176
1
 62
257
176
1
 90
1
176
1
 90
1
176
1
 40
1.0
176
1
 90
8
176
1
 62
7
176
1
 40
1.0
176
1
 90
1
176
1
 90
6
176
1
 90
2
176
1
 62
7
176
1
 90
5
176
1
 90
0
176
1
 90
0
176
1
290
0
176
1
 90
1
176
1
 40
0.0
176
1
 90
0
176
1
290
0
176
1
290
1
176
1
290
1
176
1
290
0
176
1
290
0
176
1
290
0
176
1
290
0
176
1
290
0
176
1
290
0
176
1
 90
50
176
1
 40
0.0
176
1
 40
1.0
176
1
 90
0
176
1
 62
18
420
0
176
1
 90
50
176
1
 90
3
176
1
 62
5
420
255
176
1
290
0
176
1
 90
50
176
1
 90
50
176
1
 90
50
176
1
290
0
176
1
 90
50
176
1
 62
256
176
0
 40
1.0
176
0
 90
2
176
1
  1
strokes_ogs.tif
176
1
290
0
176
1
 40
1.0
176
1
 40
1.0
176
1
  0
VISUALSTYLE
  5
68
102
{ACAD_REACTORS
330
16
102
}
330
16
100
AcDbVisualStyle
  2
Linepattern
 70
14
177
3
291
1
 70
58
 90
2
176
1
 90
2
176
1
 90
0
176
1
 90
2
176
1
 40
0.6
176
1
 40
30.0
176
1
 62
7
420
16777215
176
1
 90
1
176
1
 90
4
176
1
 62
7
176
1
 62
257
176
1
 90
1
176
1
 90
1
176
1
 40
1.0
176
1
 90
8
176
1
 62
7
176
1
 40
1.0
176
1
 90
1
176
1
 90
6
176
1
 90
2
176
1
 62
7
176
1
 90
5
176
1
 90
0
176
1
 90
0
176
1
290
0
176
1
 90
1
176
1
 40
0.0
176
1
 90
0
176
1
290
0
176
1
290
1
176
1
290
1
176
1
290
0
176
1
290
0
176
1
290
0
176
1
290
0
176
1
290
0
176
1
290
0
176
1
 90
50
176
1
 40
0.0
176
1
 40
1.0
176
1
 90
0
176
1
 62
18
420
0
176
1
 90
50
176
1
 90
3
176
1
 62
5
420
255
176
1
290
0
176
1
 90
50
176
1
 90
50
176
1
 90
50
176
1
290
0
176
1
 90
50
176
1
 62
256
176
0
 40
1.0
176
0
 90
2
176
1
  1
strokes_ogs.tif
176
1
290
0
176
1
 40
1.0
176
1
 40
1.0
176
1
  0
VISUALSTYLE
  5
69
102
{ACAD_REACTORS
330
16
102
}
330
16
100
AcDbVisualStyle
  2
Modeling
 70
10
177
3
291
0
 70
58
 90
2
176
1
 90
2
176
1
 90
0
176
1
 90
2
176
1
 40
0.6
176
1
 40
30.0
176
1
 62
7
420
16777215
176
1
 90
1
176
1
 90
4
176
1
 62
7
176
1
 62
257
176
1
 90
1
176
1
 90
1
176
1
 40
1.0
176
1
 90
8
176
1
 62
7
176
1
 40
1.0
176
1
 90
1
176
1
 90
6
176
1
 90
2
176
1
 62
7
176
1
 90
5
176
1
 90
0
176
1
 90
0
176
1
290
0
176
1
 90
1
176
1
 40
0.0
176
1
 90
0
176
1
290
0
176
1
290
1
176
1
290
1
176
1
290
0
176
1
290
0
176
1
290
0
176
1
290
0
176
1
290
0
176
1
290
0
176
1
 90
50
176
1
 40
0.0
176
1
 40
1.0
176
1
 90
0
176
1
 62
18
420
0
176
1
 90
50
176
1
 90
3
176
1
 62
5
420
255
176
1
290
0
176
1
 90
50
176
1
 90
50
176
1
 90
50
176
1
290
0
176
1
 90
50
176
1
 62
256
176
0
 40
1.0
176
0
 90
2
176
1
  1
strokes_ogs.tif
176
1
290
0
176
1
 40
1.0
176
1
 40
1.0
176
1
  0
VISUALSTYLE
  5
6A
102
{ACAD_REACTORS
330
16
102
}
330
16
100
AcDbVisualStyle
  2
OverhangOff
 70
21
177
3
291
1
 70
58
 90
2
176
1
 90
2
176
1
 90
0
176
1
 90
2
176
1
 40
0.6
176
1
 40
30.0
176
1
 62
7
420
16777215
176
1
 90
1
176
1
 90
4
176
1
 62
7
176
1
 62
257
176
1
 90
1
176
1
 90
1
176
1
 40
1.0
176
1
 90
8
176
1
 62
7
176
1
 40
1.0
176
1
 90
1
176
1
 90
6
176
1
 90
2
176
1
 62
7
176
1
 90
5
176
1
 90
0
176
1
 90
0
176
1
290
0
176
1
 90
1
176
1
 40
0.0
176
1
 90
0
176
1
290
0
176
1
290
1
176
1
290
1
176
1
290
0
176
1
290
0
176
1
290
0
176
1
290
0
176
1
290
0
176
1
290
0
176
1
 90
50
176
1
 40
0.0
176
1
 40
1.0
176
1
 90
0
176
1
 62
18
420
0
176
1
 90
50
176
1
 90
3
176
1
 62
5
420
255
176
1
290
0
176
1
 90
50
176
1
 90
50
176
1
 90
50
176
1
290
0
176
1
 90
50
176
1
 62
256
176
0
 40
1.0
176
0
 90
2
176
1
  1
strokes_ogs.tif
176
1
290
0
176
1
 40
1.0
176
1
 40
1.0
176
1
  0
VISUALSTYLE
  5
6B
102
{ACAD_REACTORS
330
16
102
}
330
16
100
AcDbVisualStyle
  2
Realistic
 70
8
177
3
291
0
 70
58
 90
2
176
1
 90
2
176
1
 90
0
176
1
 90
2
176
1
 40
0.6
176
1
 40
30.0
176
1
 62
7
420
16777215
176
1
 90
1
176
1
 90
4
176
1
 62
7
176
1
 62
257
176
1
 90
1
176
1
 90
1
176
1
 40
1.0
176
1
 90
8
176
1
 62
7
176
1
 40
1.0
176
1
 90
1
176
1
 90
6
176
1
 90
2
176
1
 62
7
176
1
 90
5
176
1
 90
0
176
1
 90
0
176
1
290
0
176
1
 90
1
176
1
 40
0.0
176
1
 90
0
176
1
290
0
176
1
290
1
176
1
290
1
176
1
290
0
176
1
290
0
176
1
290
0
176
1
290
0
176
1
290
0
176
1
290
0
176
1
 90
50
176
1
 40
0.0
176
1
 40
1.0
176
1
 90
0
176
1
 62
18
420
0
176
1
 90
50
176
1
 90
3
176
1
 62
5
420
255
176
1
290
0
176
1
 90
50
176
1
 90
50
176
1
 90
50
176
1
290
0
176
1
 90
50
176
1
 62
256
176
0
 40
1.0
176
0
 90
2
176
1
  1
strokes_ogs.tif
176
1
290
0
176
1
 40
1.0
176
1
 40
1.0
176
1
  0
VISUALSTYLE
  5
6C
102
{ACAD_REACTORS
330
16
102
}
330
16
100
AcDbVisualStyle
  2
Shaded
 70
27
177
3
291
0
 70
58
 90
2
176
1
 90
2
176
1
 90
0
176
1
 90
2
176
1
 40
0.6
176
1
 40
30.0
176
1
 62
7
420
16777215
176
1
 90
1
176
1
 90
4
176
1
 62
7
176
1
 62
257
176
1
 90
1
176
1
 90
1
176
1
 40
1.0
176
1
 90
8
176
1
 62
7
176
1
 40
1.0
176
1
 90
1
176
1
 90
6
176
1
 90
2
176
1
 62
7
176
1
 90
5
176
1
 90
0
176
1
 90
0
176
1
290
0
176
1
 90
1
176
1
 40
0.0
176
1
 90
0
176
1
290
0
176
1
290
1
176
1
290
1
176
1
290
0
176
1
290
0
176
1
290
0
176
1
290
0
176
1
290
0
176
1
290
0
176
1
 90
50
176
1
 40
0.0
176
1
 40
1.0
176
1
 90
0
176
1
 62
18
420
0
176
1
 90
50
176
1
 90
3
176
1
 62
5
420
255
176
1
290
0
176
1
 90
50
176
1
 90
50
176
1
 90
50
176
1
290
0
176
1
 90
50
176
1
 62
256
176
0
 40
1.0
176
0
 90
2
176
1
  1
strokes_ogs.tif
176
1
290
0
176
1
 40
1.0
176
1
 40
1.0
176
1
  0
VISUALSTYLE
  5
6D
102
{ACAD_REACTORS
330
16
102
}
330
16
100
AcDbVisualStyle
  2
Shaded with edges
 70
26
177
3
291
0
 70
58
 90
2
176
1
 90
2
176
1
 90
0
176
1
 90
2
176
1
 40
0.6
176
1
 40
30.0
176
1
 62
7
420
16777215
176
1
 90
1
176
1
 90
4
176
1
 62
7
176
1
 62
257
176
1
 90
1
176
1
 90
1
176
1
 40
1.0
176
1
 90
8
176
1
 62
7
176
1
 40
1.0
176
1
 90
1
176
1
 90
6
176
1
 90
2
176
1
 62
7
176
1
 90
5
176
1
 90
0
176
1
 90
0
176
1
290
0
176
1
 90
1
176
1
 40
0.0
176
1
 90
0
176
1
290
0
176
1
290
1
176
1
290
1
176
1
290
0
176
1
290
0
176
1
290
0
176
1
290
0
176
1
290
0
176
1
290
0
176
1
 90
50
176
1
 40
0.0
176
1
 40
1.0
176
1
 90
0
176
1
 62
18
420
0
176
1
 90
50
176
1
 90
3
176
1
 62
5
420
255
176
1
290
0
176
1
 90
50
176
1
 90
50
176
1
 90
50
176
1
290
0
176
1
 90
50
176
1
 62
256
176
0
 40
1.0
176
0
 90
2
176
1
  1
strokes_ogs.tif
176
1
290
0
176
1
 40
1.0
176
1
 40
1.0
176
1
  0
VISUALSTYLE
  5
6E
102
{ACAD_REACTORS
330
16
102
}
330
16
100
AcDbVisualStyle
  2
Shades of Gray
 70
23
177
3
291
0
 70
58
 90
2
176
1
 90
2
176
1
 90
0
176
1
 90
2
176
1
 40
0.6
176
1
 40
30.0
176
1
 62
7
420
16777215
176
1
 90
1
176
1
 90
4
176
1
 62
7
176
1
 62
257
176
1
 90
1
176
1
 90
1
176
1
 40
1.0
176
1
 90
8
176
1
 62
7
176
1
 40
1.0
176
1
 90
1
176
1
 90
6
176
1
 90
2
176
1
 62
7
176
1
 90
5
176
1
 90
0
176
1
 90
0
176
1
290
0
176
1
 90
1
176
1
 40
0.0
176
1
 90
0
176
1
290
0
176
1
290
1
176
1
290
1
176
1
290
0
176
1
290
0
176
1
290
0
176
1
290
0
176
1
290
0
176
1
290
0
176
1
 90
50
176
1
 40
0.0
176
1
 40
1.0
176
1
 90
0
176
1
 62
18
420
0
176
1
 90
50
176
1
 90
3
176
1
 62
5
420
255
176
1
290
0
176
1
 90
50
176
1
 90
50
176
1
 90
50
176
1
290
0
176
1
 90
50
176
1
 62
256
176
0
 40
1.0
176
0
 90
2
176
1
  1
strokes_ogs.tif
176
1
290
0
176
1
 40
1.0
176
1
 40
1.0
176
1
  0
VISUALSTYLE
  5
6F
102
{ACAD_REACTORS
330
16
102
}
330
16
100
AcDbVisualStyle
  2
Sketchy
 70
24
177
3
291
0
 70
58
 90
2
176
1
 90
2
176
1
 90
0
176
1
 90
1
176
1
 40
0.6
176
1
 40
30.0
176
1
 62
7
420
16777215
176
1
 90
1
176
1
 90
4
176
1
 62
7
176
1
 62
257
176
1
 90
1
176
1
 90
1
176
1
 40
1.0
176
1
 90
8
176
1
 62
7
176
1
 40
1.0
176
1
 90
1
176
1
 90
6
176
1
 90
2
176
1
 62
7
176
1
 90
5
176
1
 90
0
176
1
 90
0
176
1
290
0
176
1
 90
1
176
1
 40
0.0
176
1
 90
0
176
1
290
0
176
1
290
1
176
1
290
1
176
1
290
0
176
1
290
0
176
1
290
0
176
1
290
0
176
1
290
0
176
1
290
0
176
1
 90
50
176
1
 40
0.0
176
1
 40
1.0
176
1
 90
0
176
1
 62
18
420
0
176
1
 90
50
176
1
 90
3
176
1
 62
5
420
255
176
1
290
0
176
1
 90
50
176
1
 90
50
176
1
 90
50
176
1
290
0
176
1
 90
50
176
1
 62
256
176
0
 40
1.0
176
0
 90
2
176
1
  1
strokes_ogs.tif
176
1
290
0
176
1
 40
1.0
176
1
 40
1.0
176
1
  0
VISUALSTYLE
  5
70
102
{ACAD_REACTORS
330
16
102
}
330
16
100
AcDbVisualStyle
  2
Thicken
 70
13
177
3
291
1
 70
58
 90
2
176
1
 90
2
176
1
 90
0
176
1
 90
2
176
1
 40
0.6
176
1
 40
30.0
176
1
 62
7
420
16777215
176
1
 90
1
176
1
 90
4
176
1
 62
7
176
1
 62
257
176
1
 90
1
176
1
 90
1
176
1
 40
1.0
176
1
 90
8
176
1
 62
7
176
1
 40
1.0
176
1
 90
1
176
1
 90
6
176
1
 90
2
176
1
 62
7
176
1
 90
5
176
1
 90
0
176
1
 90
0
176
1
290
0
176
1
 90
1
176
1
 40
0.0
176
1
 90
0
176
1
290
0
176
1
290
1
176
1
290
1
176
1
290
0
176
1
290
0
176
1
290
0
176
1
290
0
176
1
290
0
176
1
290
0
176
1
 90
50
176
1
 40
0.0
176
1
 40
1.0
176
1
 90
0
176
1
 62
18
420
0
176
1
 90
50
176
1
 90
3
176
1
 62
5
420
255
176
1
290
0
176
1
 90
50
176
1
 90
50
176
1
 90
50
176
1
290
0
176
1
 90
50
176
1
 62
256
176
0
 40
1.0
176
0
 90
2
176
1
  1
strokes_ogs.tif
176
1
290
0
176
1
 40
1.0
176
1
 40
1.0
176
1
  0
VISUALSTYLE
  5
71
102
{ACAD_REACTORS
330
16
102
}
330
16
100
AcDbVisualStyle
  2
Wireframe
 70
5
177
3
291
0
 70
58
 90
2
176
1
 90
2
176
1
 90
0
176
1
 90
0
176
1
 40
0.6
176
1
 40
30.0
176
1
 62
7
420
16777215
176
1
 90
1
176
1
 90
4
176
1
 62
7
176
1
 62
257
176
1
 90
1
176
1
 90
1
176
1
 40
1.0
176
1
 90
8
176
1
 62
7
176
1
 40
1.0
176
1
 90
1
176
1
 90
6
176
1
 90
2
176
1
 62
7
176
1
 90
5
176
1
 90
0
176
1
 90
0
176
1
290
0
176
1
 90
1
176
1
 40
0.0
176
1
 90
0
176
1
290
0
176
1
290
1
176
1
290
1
176
1
290
0
176
1
290
0
176
1
290
0
176
1
290
0
176
1
290
0
176
1
290
0
176
1
 90
50
176
1
 40
0.0
176
1
 40
1.0
176
1
 90
0
176
1
 62
18
420
0
176
1
 90
50
176
1
 90
3
176
1
 62
5
420
255
176
1
290
0
176
1
 90
50
176
1
 90
50
176
1
 90
50
176
1
290
0
176
1
 90
50
176
1
 62
256
176
0
 40
1.0
176
0
 90
2
176
1
  1
strokes_ogs.tif
176
1
290
0
176
1
 40
1.0
176
1
 40
1.0
176
1
  0
VISUALSTYLE
  5
72
102
{ACAD_REACTORS
330
16
102
}
330
16
100
AcDbVisualStyle
  2
X-Ray
 70
25
177
3
291
0
 70
58
 90
2
176
1
 90
2
176
1
 90
0
176
1
 90
2
176
1
 40
0.5
176
1
 40
30.0
176
1
 62
7
420
16777215
176
1
 90
1
176
1
 90
4
176
1
 62
7
176
1
 62
257
176
1
 90
1
176
1
 90
1
176
1
 40
1.0
176
1
 90
8
176
1
 62
7
176
1
 40
1.0
176
1
 90
1
176
1
 90
6
176
1
 90
2
176
1
 62
7
176
1
 90
5
176
1
 90
0
176
1
 90
0
176
1
290
0
176
1
 90
1
176
1
 40
0.0
176
1
 90
0
176
1
290
0
176
1
290
1
176
1
290
1
176
1
290
0
176
1
290
0
176
1
290
0
176
1
290
0
176
1
290
0
176
1
290
0
176
1
 90
50
176
1
 40
0.0
176
1
 40
1.0
176
1
 90
0
176
1
 62
18
420
0
176
1
 90
50
176
1
 90
3
176
1
 62
5
420
255
176
1
290
0
176
1
 90
50
176
1
 90
50
176
1
 90
50
176
1
290
0
176
1
 90
50
176
1
 62
256
176
0
 40
1.0
176
0
 90
2
176
1
  1
strokes_ogs.tif
176
1
290
0
176
1
 40
1.0
176
1
 40
1.0
176
1
  0
DICTIONARYVAR
  5
209
330
2D
100
DictionaryVariables
280
0
  1
1.1.4 @ 2024-08-17T16:38:52.850387+00:00
  0
ENDSEC
  0
EOF
